<svg xmlns="http://www.w3.org/2000/svg" xmlns:xlink="http://www.w3.org/1999/xlink" contentStyleType="text/css" data-diagram-type="DESCRIPTION" height="715px" preserveAspectRatio="none" style="width:458px;height:715px;background:#FFFFFF;" version="1.1" viewBox="0 0 458 715" width="458px" zoomAndPan="magnify"><defs/><g><!--entity supplier--><g class="entity" data-entity="supplier" data-source-line="6" data-uid="ent0002" id="entity_supplier"><rect fill="#ADD8E6" height="44.3066" rx="2.5" ry="2.5" style="stroke:#000000;stroke-width:1;" width="87.6514" x="136.71" y="12"/><text fill="#000000" font-family="Verdana" font-size="10" lengthAdjust="spacing" textLength="67.1045" x="146.71" y="32.0537">&#1055;&#1054;&#1057;&#1058;&#1040;&#1042;&#1065;&#1048;&#1050;</text><text fill="#000000" font-family="Verdana" font-size="10" lengthAdjust="spacing" textLength="67.6514" x="146.71" y="44.207">(&#1050;&#1086;&#1085;&#1090;&#1088;&#1072;&#1075;&#1077;&#1085;&#1090;)</text></g><!--entity process1--><g class="entity" data-entity="process1" data-source-line="9" data-uid="ent0003" id="entity_process1"><ellipse cx="180.53" cy="191.31" fill="#90EE90" rx="8" ry="8" style="stroke:#000000;stroke-width:1;"/><text fill="#000000" font-family="Verdana" font-size="10" lengthAdjust="spacing" textLength="35.8008" x="144.6047" y="218.3637">&#1055;&#1056;&#1048;&#1045;&#1052;</text><text fill="#000000" font-family="Verdana" font-size="10" lengthAdjust="spacing" textLength="40.5908" x="144.6047" y="230.517">&#1058;&#1054;&#1042;&#1040;&#1056;&#1040;</text><text fill="#000000" font-family="Verdana" font-size="10" lengthAdjust="spacing" textLength="71.8506" x="144.6047" y="242.6704">(&#1055;&#1088;&#1086;&#1094;&#1077;&#1089;&#1089; 5.1)</text></g><!--entity process2--><g class="entity" data-entity="process2" data-source-line="10" data-uid="ent0004" id="entity_process2"><ellipse cx="69.53" cy="526.77" fill="#90EE90" rx="8" ry="8" style="stroke:#000000;stroke-width:1;"/><text fill="#000000" font-family="Verdana" font-size="10" lengthAdjust="spacing" textLength="68.2129" x="33.6047" y="553.8237">&#1048;&#1053;&#1058;&#1045;&#1043;&#1056;&#1040;&#1062;&#1048;&#1071;</text><text fill="#000000" font-family="Verdana" font-size="10" lengthAdjust="spacing" textLength="23.8379" x="33.6047" y="565.977">&#1057; 1&#1057;</text><text fill="#000000" font-family="Verdana" font-size="10" lengthAdjust="spacing" textLength="71.8506" x="33.6047" y="578.1304">(&#1055;&#1088;&#1086;&#1094;&#1077;&#1089;&#1089; 5.2)</text></g><!--entity store1c_trade--><g class="entity" data-entity="store1c_trade" data-source-line="13" data-uid="ent0005" id="entity_store1c_trade"><path d="M21.4,336.31 C21.4,326.31 69.5274,326.31 69.5274,326.31 C69.5274,326.31 117.6549,326.31 117.6549,336.31 L117.6549,381.77 C117.6549,391.77 69.5274,391.77 69.5274,391.77 C69.5274,391.77 21.4,391.77 21.4,381.77 L21.4,336.31" fill="#90EE90" style="stroke:#000000;stroke-width:1;"/><path d="M21.4,336.31 C21.4,346.31 69.5274,346.31 69.5274,346.31 C69.5274,346.31 117.6549,346.31 117.6549,336.31" fill="none" style="stroke:#000000;stroke-width:1;"/><text fill="#000000" font-family="Verdana" font-size="10" lengthAdjust="spacing" textLength="76.2549" x="31.4" y="360.3637">1&#1057;: &#1058;&#1054;&#1056;&#1043;&#1054;&#1042;&#1051;&#1071;</text><text fill="#000000" font-family="Verdana" font-size="10" lengthAdjust="spacing" textLength="46.5674" x="31.4" y="372.517">&#1048; &#1057;&#1050;&#1051;&#1040;&#1044;</text><text fill="#000000" font-family="Verdana" font-size="10" lengthAdjust="spacing" textLength="31.3154" x="31.4" y="384.6704">&#9989; &#1054;&#1050;</text></g><!--entity system1c_acc--><g class="entity" data-entity="system1c_acc" data-source-line="14" data-uid="ent0006" id="entity_system1c_acc"><rect fill="#90EE90" height="44.3066" rx="2.5" ry="2.5" style="stroke:#000000;stroke-width:1;" width="114.1797" x="12.44" y="662.85"/><text fill="#000000" font-family="Verdana" font-size="10" lengthAdjust="spacing" textLength="94.1797" x="22.44" y="682.9037">1&#1057;: &#1041;&#1059;&#1061;&#1043;&#1040;&#1051;&#1058;&#1045;&#1056;&#1048;&#1071;</text><text fill="#000000" font-family="Verdana" font-size="10" lengthAdjust="spacing" textLength="31.3154" x="22.44" y="695.057">&#9989; &#1054;&#1050;</text></g><!--entity store_excel--><g class="entity" data-entity="store_excel" data-source-line="17" data-uid="ent0007" id="entity_store_excel"><path d="M176.96,336.31 C176.96,326.31 253.5298,326.31 253.5298,326.31 C253.5298,326.31 330.0996,326.31 330.0996,336.31 L330.0996,381.77 C330.0996,391.77 253.5298,391.77 253.5298,391.77 C253.5298,391.77 176.96,391.77 176.96,381.77 L176.96,336.31" fill="#FFC0CB" style="stroke:#000000;stroke-width:1;"/><path d="M176.96,336.31 C176.96,346.31 253.5298,346.31 253.5298,346.31 C253.5298,346.31 330.0996,346.31 330.0996,336.31" fill="none" style="stroke:#000000;stroke-width:1;"/><text fill="#000000" font-family="Verdana" font-size="10" lengthAdjust="spacing" textLength="133.1396" x="186.96" y="360.3637">&#1044;&#1059;&#1041;&#1051;&#1048;&#1056;&#1054;&#1042;&#1040;&#1053;&#1048;&#1045; &#1044;&#1040;&#1053;&#1053;&#1067;&#1061;</text><text fill="#000000" font-family="Verdana" font-size="10" lengthAdjust="spacing" textLength="35.2344" x="186.96" y="372.517">(Excel)</text><text fill="#000000" font-family="Verdana" font-size="10" lengthAdjust="spacing" textLength="43.9619" x="186.96" y="384.6704">&#128308; &#1056;&#1048;&#1057;&#1050;</text></g><!--entity store_disk--><g class="entity" data-entity="store_disk" data-source-line="18" data-uid="ent0008" id="entity_store_disk"><path d="M321.24,510.12 C321.24,500.12 367.5266,500.12 367.5266,500.12 C367.5266,500.12 413.8132,500.12 413.8132,510.12 L413.8132,543.4266 C413.8132,553.4266 367.5266,553.4266 367.5266,553.4266 C367.5266,553.4266 321.24,553.4266 321.24,543.4266 L321.24,510.12" fill="#FFC0CB" style="stroke:#000000;stroke-width:1;"/><path d="M321.24,510.12 C321.24,520.12 367.5266,520.12 367.5266,520.12 C367.5266,520.12 413.8132,520.12 413.8132,510.12" fill="none" style="stroke:#000000;stroke-width:1;"/><text fill="#000000" font-family="Verdana" font-size="10" lengthAdjust="spacing" textLength="72.5732" x="331.24" y="534.1737">&#1054;&#1041;&#1065;&#1048;&#1049; &#1044;&#1048;&#1057;&#1050;</text><text fill="#000000" font-family="Verdana" font-size="10" lengthAdjust="spacing" textLength="43.9619" x="331.24" y="546.327">&#128308; &#1056;&#1048;&#1057;&#1050;</text></g><g class="entity" data-entity="GMN15" data-source-line="31" data-uid="ent0016" id="entity_GMN15"><path d="M11,180.23 L11,202.3833 L46.0625,202.3833 L46.0625,190.23 L36.0625,180.23 L11,180.23" fill="#FFFFFF" style="stroke:#000000;stroke-width:1;"/><path d="M36.0625,180.23 L36.0625,190.23 L46.0625,190.23 L36.0625,180.23" fill="#FFFFFF" style="stroke:#000000;stroke-width:1;"/><text fill="#000000" font-family="Verdana" font-size="10" lengthAdjust="spacing" textLength="14.0625" x="17" y="195.2837">D7</text></g><g class="entity" data-entity="GMN18" data-source-line="32" data-uid="ent0019" id="entity_GMN18"><path d="M319,180.23 L319,202.3833 L354.0625,202.3833 L354.0625,190.23 L344.0625,180.23 L319,180.23" fill="#FFFFFF" style="stroke:#000000;stroke-width:1;"/><path d="M344.0625,180.23 L344.0625,190.23 L354.0625,190.23 L344.0625,180.23" fill="#FFFFFF" style="stroke:#000000;stroke-width:1;"/><text fill="#000000" font-family="Verdana" font-size="10" lengthAdjust="spacing" textLength="14.0625" x="325" y="195.2837">D6</text></g><g class="entity" data-entity="GMN21" data-source-line="35" data-uid="ent0022" id="entity_GMN21"><path d="M148.47,503.54 L148.47,550 L286.594,550 L286.594,513.54 L276.594,503.54 L148.47,503.54" fill="#FFFFFF" style="stroke:#000000;stroke-width:1;"/><path d="M276.594,503.54 L276.594,513.54 L286.594,513.54 L276.594,503.54" fill="#FFFFFF" style="stroke:#000000;stroke-width:1;"/><text fill="#000000" font-family="Verdana" font-size="10" lengthAdjust="spacing" textLength="61.7432" x="154.47" y="518.5937">&#1055;&#1056;&#1054;&#1041;&#1051;&#1045;&#1052;&#1040;:</text><text fill="#000000" font-family="Verdana" font-size="10" lengthAdjust="spacing" textLength="117.124" x="154.47" y="530.747">&#1050;&#1086;&#1084;&#1084;&#1077;&#1088;&#1095;&#1077;&#1089;&#1082;&#1080;&#1077; &#1076;&#1072;&#1085;&#1085;&#1099;&#1077;</text><text fill="#000000" font-family="Verdana" font-size="10" lengthAdjust="spacing" textLength="106.8506" x="154.47" y="542.9004">&#1076;&#1091;&#1073;&#1083;&#1080;&#1088;&#1091;&#1102;&#1090;&#1089;&#1103; &#1074; Excel</text></g><g class="entity" data-entity="GMN24" data-source-line="36" data-uid="ent0025" id="entity_GMN24"><path d="M283.37,661.77 L283.37,708.23 A0,0 0 0 0 283.37,708.23 L451.6845,708.23 A0,0 0 0 0 451.6845,708.23 L451.6845,671.77 L441.6845,661.77 L371.53,661.77 L367.53,553.92 L363.53,661.77 L283.37,661.77 A0,0 0 0 0 283.37,661.77" fill="#FFFFFF" style="stroke:#000000;stroke-width:1;"/><path d="M441.6845,661.77 L441.6845,671.77 L451.6845,671.77 L441.6845,661.77" fill="#FFFFFF" style="stroke:#000000;stroke-width:1;"/><text fill="#000000" font-family="Verdana" font-size="10" lengthAdjust="spacing" textLength="61.7432" x="289.37" y="676.8237">&#1055;&#1056;&#1054;&#1041;&#1051;&#1045;&#1052;&#1040;:</text><text fill="#000000" font-family="Verdana" font-size="10" lengthAdjust="spacing" textLength="147.3145" x="289.37" y="688.977">&#1048;&#1085;&#1092;&#1086;&#1088;&#1084;&#1072;&#1094;&#1080;&#1103; &#1086; &#1087;&#1086;&#1089;&#1090;&#1072;&#1074;&#1097;&#1080;&#1082;&#1072;&#1093;</text><text fill="#000000" font-family="Verdana" font-size="10" lengthAdjust="spacing" textLength="69.585" x="289.37" y="701.1304">&#1085;&#1077; &#1079;&#1072;&#1097;&#1080;&#1097;&#1077;&#1085;&#1072;</text></g><!--link supplier to process1--><g class="link" data-entity-1="supplier" data-entity-2="process1" data-source-line="21" data-uid="lnk9" id="link_supplier_process1"><path d="M180.53,56.73 C180.53,91.87 180.53,153.83 180.53,176.64" fill="none" id="supplier-to-process1" style="stroke:#000000;stroke-width:1;"/><polygon fill="#000000" points="180.53,182.64,184.53,173.64,180.53,177.64,176.53,173.64,180.53,182.64" style="stroke:#000000;stroke-width:1;"/><text fill="#000000" font-family="Verdana" font-size="10" lengthAdjust="spacing" textLength="108.1104" x="181.53" y="97.3637">&#1058;&#1086;&#1074;&#1072;&#1088;&#1099; &#1080; &#1076;&#1086;&#1082;&#1091;&#1084;&#1077;&#1085;&#1090;&#1099;</text><text fill="#000000" font-family="Verdana" font-size="10" lengthAdjust="spacing" textLength="101.5527" x="184.8088" y="109.517">(&#1085;&#1072;&#1082;&#1083;&#1072;&#1076;&#1085;&#1099;&#1077;, &#1089;&#1095;&#1077;&#1090;&#1072;)</text></g><!--link process1 to store1c_trade--><g class="link" data-entity-1="process1" data-entity-2="store1c_trade" data-source-line="22" data-uid="lnk10" id="link_process1_store1c_trade"><path d="M171.65,198.57 C155.16,210.62 119.66,238.69 99.53,270.31 C88.73,287.28 82.9027,302.8125 78.1527,320.1825" fill="none" id="process1-to-store1c_trade" style="stroke:#000000;stroke-width:1;"/><polygon fill="#000000" points="76.57,325.97,82.8023,318.3438,77.8889,321.1471,75.0856,316.2336,76.57,325.97" style="stroke:#000000;stroke-width:1;"/><text fill="#000000" font-family="Verdana" font-size="10" lengthAdjust="spacing" textLength="108.0908" x="100.53" y="287.3637">&#1044;&#1086;&#1082;&#1091;&#1084;&#1077;&#1085;&#1090;&#1099; &#1087;&#1086;&#1089;&#1090;&#1072;&#1074;&#1082;&#1080;</text></g><!--link process1 to store_excel--><g class="link" data-entity-1="process1" data-entity-2="store_excel" data-source-line="23" data-uid="lnk11" id="link_process1_store_excel"><path d="M184.05,200.3 C193.91,222.68 219.7512,281.3591 237.0412,320.6091" fill="none" id="process1-to-store_excel" style="stroke:#000000;stroke-width:1;"/><polygon fill="#000000" points="239.46,326.1,239.4924,316.2512,237.4444,321.5243,232.1713,319.4762,239.46,326.1" style="stroke:#000000;stroke-width:1;"/><text fill="#000000" font-family="Verdana" font-size="10" lengthAdjust="spacing" textLength="75.1074" x="226.72" y="281.3637">&#1044;&#1091;&#1073;&#1083;&#1080;&#1088;&#1086;&#1074;&#1072;&#1085;&#1080;&#1077;</text><text fill="#000000" font-family="Verdana" font-size="10" lengthAdjust="spacing" textLength="35.6152" x="246.4661" y="293.517">&#1074; Excel</text></g><!--link store1c_trade to process2--><g class="link" data-entity-1="store1c_trade" data-entity-2="process2" data-source-line="25" data-uid="lnk12" id="link_store1c_trade_process2"><path d="M69.53,391.99 C69.53,431.31 69.53,489.6 69.53,511.87" fill="none" id="store1c_trade-to-process2" style="stroke:#000000;stroke-width:1;"/><polygon fill="#000000" points="69.53,517.87,73.53,508.87,69.53,512.87,65.53,508.87,69.53,517.87" style="stroke:#000000;stroke-width:1;"/><text fill="#000000" font-family="Verdana" font-size="10" lengthAdjust="spacing" textLength="65.8252" x="70.53" y="438.8237">&#1044;&#1072;&#1085;&#1085;&#1099;&#1077; &#1058;&#1052;&#1062;</text></g><!--link store_excel to store_disk--><g class="link" data-entity-1="store_excel" data-entity-2="store_disk" data-source-line="26" data-uid="lnk13" id="link_store_excel_store_disk"><path d="M275.51,391.99 C297.06,423.32 326.1005,465.5359 346.1505,494.6959" fill="none" id="store_excel-to-store_disk" style="stroke:#000000;stroke-width:1;"/><polygon fill="#000000" points="349.55,499.64,347.7468,489.9576,346.7171,495.52,341.1548,494.4902,349.55,499.64" style="stroke:#000000;stroke-width:1;"/><text fill="#000000" font-family="Verdana" font-size="10" lengthAdjust="spacing" textLength="74.7412" x="311.53" y="432.8237">&#1050;&#1086;&#1084;&#1084;&#1077;&#1088;&#1095;&#1077;&#1089;&#1082;&#1080;&#1077;</text><text fill="#000000" font-family="Verdana" font-size="10" lengthAdjust="spacing" textLength="38.8672" x="329.467" y="444.977">&#1076;&#1072;&#1085;&#1085;&#1099;&#1077;</text></g><!--link process2 to system1c_acc--><g class="link" data-entity-1="process2" data-entity-2="system1c_acc" data-source-line="28" data-uid="lnk14" id="link_process2_system1c_acc"><path d="M69.53,535.73 C69.53,558.99 69.53,621.38 69.53,656.56" fill="none" id="process2-to-system1c_acc" style="stroke:#000000;stroke-width:1;"/><polygon fill="#000000" points="69.53,662.56,73.53,653.56,69.53,657.56,65.53,653.56,69.53,662.56" style="stroke:#000000;stroke-width:1;"/><text fill="#000000" font-family="Verdana" font-size="10" lengthAdjust="spacing" textLength="60.5859" x="70.53" y="616.8237">&#1048;&#1085;&#1090;&#1077;&#1075;&#1088;&#1072;&#1094;&#1080;&#1103;</text><text fill="#000000" font-family="Verdana" font-size="10" lengthAdjust="spacing" textLength="38.8281" x="81.4089" y="628.977">&#1076;&#1072;&#1085;&#1085;&#1099;&#1093;</text></g><!--link GMN15 to store1c_trade--><g class="link" data-entity-1="GMN15" data-entity-2="store1c_trade" data-source-line="31" data-uid="lnk17" id="link_GMN15_store1c_trade"><path d="M30.41,202.72 C33.88,221.52 41.74,262.37 50.53,296.31 C53.03,305.97 56.09,316.38 59.02,325.84" fill="none" id="GMN15-store1c_trade" style="stroke:#000000;stroke-width:1;stroke-dasharray:7.0,7.0;"/></g><!--link GMN18 to store_excel--><g class="link" data-entity-1="GMN18" data-entity-2="store_excel" data-source-line="32" data-uid="lnk20" id="link_GMN18_store_excel"><path d="M335.65,202.67 C333.65,222.09 327.51,264.87 310.53,296.31 C304.85,306.83 296.96,316.95 288.85,325.84" fill="none" id="GMN18-store_excel" style="stroke:#000000;stroke-width:1;stroke-dasharray:7.0,7.0;"/></g><!--link store_excel to GMN21--><g class="link" data-entity-1="store_excel" data-entity-2="GMN21" data-source-line="35" data-uid="lnk23" id="link_store_excel_GMN21"><path d="M246.18,392.06 C244.01,401.61 241.65,412.11 239.53,421.77 C233.37,449.89 226.55,482.36 222.16,503.43" fill="none" id="store_excel-GMN21" style="stroke:#000000;stroke-width:1;stroke-dasharray:7.0,7.0;"/></g><!--SRC=[TLJTRX916BtVfnZfXIMnHfge2HVUM7q1RqcQPPdI3SiksLtYpnLGKPicIhLD40ijDMrYl71jIoGLy1M-UGMVm4Vmp2nbTmiD2TdTcJddE-SxtzpoDtcPiugbcxRcbKoxehjwcULrerHqdQfTUEnOZikURve-ZwqN-8PUjVodZkq_CrznbhcdQRSPVQGn3SGx_0zfm4HTR8bjl4pmrA2XvdB3r-sYnLcA3gb7VJgc5WvzepPrSlOoTMX2Oz4GDGhed0RoEPrYkiUyQgLYcTnbIvPPtFJpLfKhmaDidOWt8AtZjwCPfcjCuOy0kay7EHiaFP2qyAKbIH9dsFsxcP2YuZe6zxpCbABeScv7U6tg0cUVFaaKEiNx3o3tMORwYp1N4vYh2KnPTv-6ofC1ZSGEMwPV5C2feTWMk_1hB7PeaDOAkg_dTG_qOCaofUC85KWrNnH_Mo9ryDAYlPpzzw39iDW97VCTbsUCTT_L2pp17-j2YBjBN-a4k2q0IOr7eReat4lFvsNWwOOnf-P4DKms_RVKG06Z2_K1GaIJBIC67o3n31j6rwNH7jXtmTm6RzYdhkmSmu9yxD9tEe75JruOt4hdx7-7UnTCbTYFArtdSfqjLKox54Vl0Ll6wxF4KsTkXYYONccAeBA5ZZOGo4iQ9lHeip2kh3oAOfC5sp6sdw6LDJGrF8NZOej6OPR5ZipA652NS2h0ikhq7JafRv6T1WNfb3P3bF39DcQLNzSm6VsPJbW0SbIx26BgZmB0uP-gKxMmt71S4QSpfbnEQLgIDgPpTLf3S1LJ6Si3EarfSPg8LdagZyZH7icYOOxKMfULAjQB20pCCnw54KzTLetXM4tDkKmSvcqeFiGHH3EbMjSD_OasCT5CPbIp7PyptwamPsFEvBM7yyip0zSUH3UFyZ6SOJmEaF49cX50N7JfAQIyu_jEUHvCtLCzbN_SLTJAGiqDJh6uKL9qr4RCrtiaeGwTLprSJ3ljnY9MwUnh55q3yvLfD4baIzvGg2KGJUmVoufcrvRC8WNQVm00]--></g></svg>