<svg xmlns="http://www.w3.org/2000/svg" xmlns:xlink="http://www.w3.org/1999/xlink" contentStyleType="text/css" data-diagram-type="DESCRIPTION" height="1100px" preserveAspectRatio="none" style="width:348px;height:1100px;background:#FFFFFF;" version="1.1" viewBox="0 0 348 1100" width="348px" zoomAndPan="magnify"><defs/><g><!--entity lab--><g class="entity" data-entity="lab" data-source-line="6" data-uid="ent0002" id="entity_lab"><rect fill="#ADD8E6" height="56.46" rx="2.5" ry="2.5" style="stroke:#000000;stroke-width:1;" width="127.4951" x="58.1753" y="12"/><text fill="#000000" font-family="Verdana" font-size="10" lengthAdjust="spacing" textLength="52.6318" x="68.1753" y="32.0537">&#1042;&#1053;&#1045;&#1064;&#1053;&#1071;&#1071;</text><text fill="#000000" font-family="Verdana" font-size="10" lengthAdjust="spacing" textLength="76.4014" x="68.1753" y="44.207">&#1051;&#1040;&#1041;&#1054;&#1056;&#1040;&#1058;&#1054;&#1056;&#1048;&#1071;</text><text fill="#000000" font-family="Verdana" font-size="10" lengthAdjust="spacing" textLength="107.4951" x="68.1753" y="56.3604">(&#1042;&#1085;&#1077;&#1096;&#1085;&#1103;&#1103; &#1089;&#1091;&#1097;&#1085;&#1086;&#1089;&#1090;&#1100;)</text></g><!--entity process1--><g class="entity" data-entity="process1" data-source-line="9" data-uid="ent0003" id="entity_process1"><ellipse cx="121.9253" cy="215.46" fill="#FFA500" rx="8" ry="8" style="stroke:#000000;stroke-width:1;"/><text fill="#000000" font-family="Verdana" font-size="10" lengthAdjust="spacing" textLength="63.667" x="84.8979" y="242.5137">&#1055;&#1054;&#1051;&#1059;&#1063;&#1045;&#1053;&#1048;&#1045;</text><text fill="#000000" font-family="Verdana" font-size="10" lengthAdjust="spacing" textLength="56.9189" x="84.8979" y="254.667">&#1040;&#1053;&#1040;&#1051;&#1048;&#1047;&#1054;&#1042;</text><text fill="#000000" font-family="Verdana" font-size="10" lengthAdjust="spacing" textLength="71.8506" x="84.8979" y="266.8204">(&#1055;&#1088;&#1086;&#1094;&#1077;&#1089;&#1089; 2.1)</text><text fill="#000000" font-family="Verdana" font-size="10" lengthAdjust="spacing" textLength="74.0547" x="84.8979" y="278.9737">&#128308; Email/&#1060;&#1072;&#1082;&#1089;</text></g><!--entity process2--><g class="entity" data-entity="process2" data-source-line="10" data-uid="ent0004" id="entity_process2"><ellipse cx="46.9253" cy="399.46" fill="#90EE90" rx="8" ry="8" style="stroke:#000000;stroke-width:1;"/><text fill="#000000" font-family="Verdana" font-size="10" lengthAdjust="spacing" textLength="62.2461" x="11" y="426.5137">&#1054;&#1041;&#1056;&#1040;&#1041;&#1054;&#1058;&#1050;&#1040;</text><text fill="#000000" font-family="Verdana" font-size="10" lengthAdjust="spacing" textLength="44.5996" x="11" y="438.667">&#1060;&#1040;&#1049;&#1051;&#1054;&#1042;</text><text fill="#000000" font-family="Verdana" font-size="10" lengthAdjust="spacing" textLength="71.8506" x="11" y="450.8204">(&#1055;&#1088;&#1086;&#1094;&#1077;&#1089;&#1089; 2.2)</text></g><!--entity process3--><g class="entity" data-entity="process3" data-source-line="11" data-uid="ent0005" id="entity_process3"><ellipse cx="109.9253" cy="710.92" fill="#90EE90" rx="8" ry="8" style="stroke:#000000;stroke-width:1;"/><text fill="#000000" font-family="Verdana" font-size="10" lengthAdjust="spacing" textLength="42.1924" x="73.5752" y="737.9737">&#1040;&#1053;&#1040;&#1051;&#1048;&#1047;</text><text fill="#000000" font-family="Verdana" font-size="10" lengthAdjust="spacing" textLength="72.7002" x="73.5752" y="750.127">&#1056;&#1045;&#1047;&#1059;&#1051;&#1068;&#1058;&#1040;&#1058;&#1054;&#1042;</text><text fill="#000000" font-family="Verdana" font-size="10" lengthAdjust="spacing" textLength="71.8506" x="73.5752" y="762.2804">(&#1055;&#1088;&#1086;&#1094;&#1077;&#1089;&#1089; 2.3)</text></g><!--entity process4--><g class="entity" data-entity="process4" data-source-line="12" data-uid="ent0006" id="entity_process4"><ellipse cx="109.9253" cy="882.92" fill="#90EE90" rx="8" ry="8" style="stroke:#000000;stroke-width:1;"/><text fill="#000000" font-family="Verdana" font-size="10" lengthAdjust="spacing" textLength="55.3418" x="74" y="909.9737">&#1042;&#1053;&#1045;&#1057;&#1045;&#1053;&#1048;&#1045;</text><text fill="#000000" font-family="Verdana" font-size="10" lengthAdjust="spacing" textLength="42.4805" x="74" y="922.127">&#1042; &#1050;&#1040;&#1056;&#1058;&#1059;</text><text fill="#000000" font-family="Verdana" font-size="10" lengthAdjust="spacing" textLength="71.8506" x="74" y="934.2804">(&#1055;&#1088;&#1086;&#1094;&#1077;&#1089;&#1089; 2.4)</text></g><!--entity store4--><g class="entity" data-entity="store4" data-source-line="15" data-uid="ent0007" id="entity_store4"><path d="M150.2253,532.46 C150.2253,522.46 185.9235,522.46 185.9235,522.46 C185.9235,522.46 221.6218,522.46 221.6218,532.46 L221.6218,577.92 C221.6218,587.92 185.9235,587.92 185.9235,587.92 C185.9235,587.92 150.2253,587.92 150.2253,577.92 L150.2253,532.46" fill="#FFC0CB" style="stroke:#000000;stroke-width:1;"/><path d="M150.2253,532.46 C150.2253,542.46 185.9235,542.46 185.9235,542.46 C185.9235,542.46 221.6218,542.46 221.6218,532.46" fill="none" style="stroke:#000000;stroke-width:1;"/><text fill="#000000" font-family="Verdana" font-size="10" lengthAdjust="spacing" textLength="51.3965" x="160.2253" y="556.5137">&#1040;&#1053;&#1040;&#1051;&#1048;&#1047;&#1067;</text><text fill="#000000" font-family="Verdana" font-size="10" lengthAdjust="spacing" textLength="43.8281" x="160.2253" y="568.667">(&#1060;&#1072;&#1081;&#1083;&#1099;)</text><text fill="#000000" font-family="Verdana" font-size="10" lengthAdjust="spacing" textLength="43.9619" x="160.2253" y="580.8204">&#128308; &#1056;&#1048;&#1057;&#1050;</text></g><!--entity store3--><g class="entity" data-entity="store3" data-source-line="16" data-uid="ent0008" id="entity_store3"><path d="M88.5453,1027.92 C88.5453,1017.92 157.9252,1017.92 157.9252,1017.92 C157.9252,1017.92 227.3051,1017.92 227.3051,1027.92 L227.3051,1073.38 C227.3051,1083.38 157.9252,1083.38 157.9252,1083.38 C157.9252,1083.38 88.5453,1083.38 88.5453,1073.38 L88.5453,1027.92" fill="#FF0000" style="stroke:#000000;stroke-width:1;"/><path d="M88.5453,1027.92 C88.5453,1037.92 157.9252,1037.92 157.9252,1037.92 C157.9252,1037.92 227.3051,1037.92 227.3051,1027.92" fill="none" style="stroke:#000000;stroke-width:1;"/><text fill="#000000" font-family="Verdana" font-size="10" lengthAdjust="spacing" textLength="118.7598" x="98.5453" y="1051.9737">&#1052;&#1045;&#1044;&#1048;&#1062;&#1048;&#1053;&#1057;&#1050;&#1048;&#1045; &#1050;&#1040;&#1056;&#1058;&#1067;</text><text fill="#000000" font-family="Verdana" font-size="10" lengthAdjust="spacing" textLength="66.0889" x="98.5453" y="1064.127">(&#1054;&#1073;&#1085;&#1086;&#1074;&#1083;&#1077;&#1085;&#1086;)</text><text fill="#000000" font-family="Verdana" font-size="10" lengthAdjust="spacing" textLength="73.1514" x="98.5453" y="1076.2804">&#128308; &#1050;&#1056;&#1048;&#1058;&#1048;&#1063;&#1053;&#1054;</text></g><g class="entity" data-entity="GMN15" data-source-line="27" data-uid="ent0016" id="entity_GMN15"><path d="M306.3953,388.38 L306.3953,410.5333 L341.4578,410.5333 L341.4578,398.38 L331.4578,388.38 L306.3953,388.38" fill="#FFFFFF" style="stroke:#000000;stroke-width:1;"/><path d="M331.4578,388.38 L331.4578,398.38 L341.4578,398.38 L331.4578,388.38" fill="#FFFFFF" style="stroke:#000000;stroke-width:1;"/><text fill="#000000" font-family="Verdana" font-size="10" lengthAdjust="spacing" textLength="14.0625" x="312.3953" y="403.4337">D4</text></g><g class="entity" data-entity="GMN18" data-source-line="28" data-uid="ent0019" id="entity_GMN18"><path d="M188.3953,871.84 L188.3953,893.9933 L223.4578,893.9933 L223.4578,881.84 L213.4578,871.84 L188.3953,871.84" fill="#FFFFFF" style="stroke:#000000;stroke-width:1;"/><path d="M213.4578,871.84 L213.4578,881.84 L223.4578,881.84 L213.4578,871.84" fill="#FFFFFF" style="stroke:#000000;stroke-width:1;"/><text fill="#000000" font-family="Verdana" font-size="10" lengthAdjust="spacing" textLength="14.0625" x="194.3953" y="886.8937">D3</text></g><g class="entity" data-entity="GMN21" data-source-line="31" data-uid="ent0022" id="entity_GMN21"><path d="M124.7753,376.23 L124.7753,422.69 L271.0683,422.69 L271.0683,386.23 L261.0683,376.23 L124.7753,376.23" fill="#FFFFFF" style="stroke:#000000;stroke-width:1;"/><path d="M261.0683,376.23 L261.0683,386.23 L271.0683,386.23 L261.0683,376.23" fill="#FFFFFF" style="stroke:#000000;stroke-width:1;"/><text fill="#000000" font-family="Verdana" font-size="10" lengthAdjust="spacing" textLength="61.7432" x="130.7753" y="391.2837">&#1055;&#1056;&#1054;&#1041;&#1051;&#1045;&#1052;&#1040;:</text><text fill="#000000" font-family="Verdana" font-size="10" lengthAdjust="spacing" textLength="125.293" x="130.7753" y="403.437">&#1053;&#1077;&#1073;&#1077;&#1079;&#1086;&#1087;&#1072;&#1089;&#1085;&#1072;&#1103; &#1087;&#1077;&#1088;&#1077;&#1076;&#1072;&#1095;&#1072;</text><text fill="#000000" font-family="Verdana" font-size="10" lengthAdjust="spacing" textLength="73.3496" x="130.7753" y="415.5904">&#1087;&#1086; email/&#1092;&#1072;&#1082;&#1089;</text></g><g class="entity" data-entity="GMN24" data-source-line="32" data-uid="ent0025" id="entity_GMN24"><path d="M188.5453,687.69 L188.5453,734.15 L337.3138,734.15 L337.3138,697.69 L327.3138,687.69 L188.5453,687.69" fill="#FFFFFF" style="stroke:#000000;stroke-width:1;"/><path d="M327.3138,687.69 L327.3138,697.69 L337.3138,697.69 L327.3138,687.69" fill="#FFFFFF" style="stroke:#000000;stroke-width:1;"/><text fill="#000000" font-family="Verdana" font-size="10" lengthAdjust="spacing" textLength="61.7432" x="194.5453" y="702.7437">&#1055;&#1056;&#1054;&#1041;&#1051;&#1045;&#1052;&#1040;:</text><text fill="#000000" font-family="Verdana" font-size="10" lengthAdjust="spacing" textLength="127.7686" x="194.5453" y="714.897">&#1054;&#1090;&#1089;&#1091;&#1090;&#1089;&#1090;&#1074;&#1080;&#1077; &#1096;&#1080;&#1092;&#1088;&#1086;&#1074;&#1072;&#1085;&#1080;&#1103;</text><text fill="#000000" font-family="Verdana" font-size="10" lengthAdjust="spacing" textLength="39.0381" x="194.5453" y="727.0504">&#1092;&#1072;&#1081;&#1083;&#1086;&#1074;</text></g><!--link lab to process1--><g class="link" data-entity-1="lab" data-entity-2="process1" data-source-line="19" data-uid="lnk9" id="link_lab_process1"><path d="M121.9253,68.68 C121.9253,109.13 121.9253,176.56 121.9253,200.61" fill="none" id="lab-to-process1" style="stroke:#000000;stroke-width:1;"/><polygon fill="#000000" points="121.9253,206.61,125.9253,197.61,121.9253,201.61,117.9253,197.61,121.9253,206.61" style="stroke:#000000;stroke-width:1;"/><text fill="#000000" font-family="Verdana" font-size="10" lengthAdjust="spacing" textLength="110.7031" x="122.9253" y="109.5137">&#1056;&#1077;&#1079;&#1091;&#1083;&#1100;&#1090;&#1072;&#1090;&#1099; &#1072;&#1085;&#1072;&#1083;&#1080;&#1079;&#1086;&#1074;</text><text fill="#000000" font-family="Verdana" font-size="10" lengthAdjust="spacing" textLength="74.585" x="140.9844" y="121.667">(PDF, &#1076;&#1072;&#1085;&#1085;&#1099;&#1077;)</text></g><!--link process1 to process2--><g class="link" data-entity-1="process1" data-entity-2="process2" data-source-line="20" data-uid="lnk10" id="link_process1_process2"><path d="M118.5253,224.39 C111.8253,240.04 96.4653,276.04 83.9253,306.46 C71.0653,337.66 58.4123,369.4307 52.1623,385.2307" fill="none" id="process1-to-process2" style="stroke:#000000;stroke-width:1;"/><polygon fill="#000000" points="49.9553,390.81,56.9854,383.9123,51.7945,386.1605,49.5463,380.9696,49.9553,390.81" style="stroke:#000000;stroke-width:1;"/><text fill="#000000" font-family="Verdana" font-size="10" lengthAdjust="spacing" textLength="86.5137" x="84.9253" y="317.5137">&#1060;&#1072;&#1081;&#1083;&#1099; &#1072;&#1085;&#1072;&#1083;&#1080;&#1079;&#1086;&#1074;</text></g><!--link process2 to store4--><g class="link" data-entity-1="process2" data-entity-2="store4" data-source-line="21" data-uid="lnk11" id="link_process2_store4"><path d="M54.0053,408.29 C72.7053,428.98 120.1812,481.4796 153.0312,517.8096" fill="none" id="process2-to-store4" style="stroke:#000000;stroke-width:1;"/><polygon fill="#000000" points="157.0553,522.26,153.986,512.9016,153.7018,518.5513,148.0521,518.2671,157.0553,522.26" style="stroke:#000000;stroke-width:1;"/><text fill="#000000" font-family="Verdana" font-size="10" lengthAdjust="spacing" textLength="89.248" x="129.8753" y="489.5137">&#1062;&#1080;&#1092;&#1088;&#1086;&#1074;&#1099;&#1077; &#1082;&#1086;&#1087;&#1080;&#1080;</text></g><!--link store4 to process3--><g class="link" data-entity-1="store4" data-entity-2="process3" data-source-line="22" data-uid="lnk12" id="link_store4_process3"><path d="M149.9653,583.63 C139.6353,593.34 129.4153,605.07 122.9253,617.92 C108.5953,646.28 108.333,679.4766 109.113,696.0366" fill="none" id="store4-to-process3" style="stroke:#000000;stroke-width:1;"/><polygon fill="#000000" points="109.3953,702.03,112.9674,692.8518,109.16,697.0355,104.9763,693.2282,109.3953,702.03" style="stroke:#000000;stroke-width:1;"/><text fill="#000000" font-family="Verdana" font-size="10" lengthAdjust="spacing" textLength="112.2217" x="123.9253" y="628.9737">&#1052;&#1077;&#1076;&#1080;&#1094;&#1080;&#1085;&#1089;&#1082;&#1080;&#1077; &#1076;&#1072;&#1085;&#1085;&#1099;&#1077;</text></g><!--link process3 to process4--><g class="link" data-entity-1="process3" data-entity-2="process4" data-source-line="23" data-uid="lnk13" id="link_process3_process4"><path d="M109.9253,719.67 C109.9253,747.99 109.9253,839.73 109.9253,868.13" fill="none" id="process3-to-process4" style="stroke:#000000;stroke-width:1;"/><polygon fill="#000000" points="109.9253,874.13,113.9253,865.13,109.9253,869.13,105.9253,865.13,109.9253,874.13" style="stroke:#000000;stroke-width:1;"/><text fill="#000000" font-family="Verdana" font-size="10" lengthAdjust="spacing" textLength="97.1777" x="110.9253" y="800.9737">&#1047;&#1072;&#1082;&#1083;&#1102;&#1095;&#1077;&#1085;&#1080;&#1077; &#1074;&#1088;&#1072;&#1095;&#1072;</text></g><!--link process4 to store3--><g class="link" data-entity-1="process4" data-entity-2="store3" data-source-line="24" data-uid="lnk14" id="link_process4_store3"><path d="M108.0953,891.78 C104.3353,909.52 97.0353,953.82 108.9253,987.92 C112.6153,998.51 115.2865,1003.9279 122.2165,1012.8179" fill="none" id="process4-to-store3" style="stroke:#000000;stroke-width:1;"/><polygon fill="#000000" points="125.9053,1017.55,123.5268,1007.9927,122.8313,1013.6066,117.2174,1012.9111,125.9053,1017.55" style="stroke:#000000;stroke-width:1;"/><text fill="#000000" font-family="Verdana" font-size="10" lengthAdjust="spacing" textLength="69.3115" x="109.9253" y="972.9737">&#1054;&#1073;&#1085;&#1086;&#1074;&#1083;&#1077;&#1085;&#1085;&#1072;&#1103;</text><text fill="#000000" font-family="Verdana" font-size="10" lengthAdjust="spacing" textLength="48.2568" x="120.4526" y="985.127">&#1084;&#1077;&#1076;&#1082;&#1072;&#1088;&#1090;&#1072;</text></g><!--link GMN15 to store4--><g class="link" data-entity-1="GMN15" data-entity-2="store4" data-source-line="27" data-uid="lnk17" id="link_GMN15_store4"><path d="M317.0853,410.7 C310.3053,420.64 299.4353,436.01 288.9253,448.46 C267.1053,474.31 240.4053,501.61 219.6553,521.99" fill="none" id="GMN15-store4" style="stroke:#000000;stroke-width:1;stroke-dasharray:7.0,7.0;"/></g><!--link GMN18 to store3--><g class="link" data-entity-1="GMN18" data-entity-2="store3" data-source-line="28" data-uid="lnk20" id="link_GMN18_store3"><path d="M204.3853,894.42 C201.4453,913.38 194.4053,954.46 183.9253,987.92 C180.8353,997.8 176.7453,1008.27 172.7353,1017.72" fill="none" id="GMN18-store3" style="stroke:#000000;stroke-width:1;stroke-dasharray:7.0,7.0;"/></g><!--link process1 to GMN21--><g class="link" data-entity-1="process1" data-entity-2="GMN21" data-source-line="31" data-uid="lnk23" id="link_process1_GMN21"><path d="M127.8853,224.45 C138.9353,239.64 162.7053,274.07 175.9253,306.46 C185.2353,329.27 191.1853,356.93 194.5253,375.93" fill="none" id="process1-GMN21" style="stroke:#000000;stroke-width:1;stroke-dasharray:7.0,7.0;"/></g><!--link store4 to GMN24--><g class="link" data-entity-1="store4" data-entity-2="GMN24" data-source-line="32" data-uid="lnk26" id="link_store4_GMN24"><path d="M219.7753,588.19 C227.6853,597.16 235.4153,607.36 240.9253,617.92 C252.4053,639.9 257.9953,667.96 260.6553,687.28" fill="none" id="store4-GMN24" style="stroke:#000000;stroke-width:1;stroke-dasharray:7.0,7.0;"/></g><!--SRC=[TLHDJnf16BxlhvZYeIMfRGLE7dgfzToaLoyBZBXnsINBcYOzYL-rmLHgD5eHHBJQf4r48f7w-HVU-IVz2NtUMSekI4FsOsRdVRxcPPxuSp8lHS4sBSSepbjEmVJCl4YRcVcSvouusJUkxNhYmvpboyZth9mr5sn_sdNyzzP7AIPU6SPJGLjqHnsrZdkNEaALrBBwZC4ztfQeQtWouvjEpfOYXgKrsg4Vk9_J-On3LQhGLwfJ0y-cVkxn_BCGKssgpI5CjH6F2RCeR3CjncmhD-UdxGMffHogHQnPGsa9lxAHiRoC9Zu4U9MEwGpqDP3iWBo2jmfczsWNNxUOTg1U95vCn6USFuVRb-9jthJibtH2BRfM9KrVyDoCB1Odn9ZhmPyCoUhmrEWvQz8-LK1sWl4taFs7A16FOYPwldAUb4w86n4Cn0QixC9IbNw19SXl97Po03iv6ZlOcQD8F5k2fOEcISUZO5C3iAa1MDwBxrZVqarnGrtiNalGfPwuKsMrQcHDtqoRnI5Vz9EfEERVTAFA_-BNZN54-vgnwBkU15_1SkQZC0SGlurrfxXgl9gDX2OqSfqkk8se3L4TVkipx6kE9gupLDT39WJcoMpGNWXW2TNNr1qqmwquFluwx8b9w6c0uKejmyS6gbfetBBGDIrEXAvO1ZIzcvf-7a6ZJZncz74Ye0aDse_c4LI_Ag6hUYbnpIdoN-7TepRZ2-Y_fmVKTMD6Rrc49wbh3Y3-4dLhM7QdIcoPAoCo-tp9Q7N0kCl_4wZyeZxfc7Ljcni24wr-PIfK6h0ERmyCgatqugrMSutH8aSPqxjHGxRue54Xay-9rS6UCnpNby9t2yAT3GEPIZsUP_gfP7Y6G0ShkEMSBtWVTM8j114UR1eaxVg-csUSoDwZKHhw5AYY9G-eCWaBDQ0C8y6Sm80ji3yT3fO-qBsG-i1HAy61CypLzpAAgOvEumDpIUji1wVoUjW3GKASguP7D_6iyHS0]--></g></svg>