<svg xmlns="http://www.w3.org/2000/svg" xmlns:xlink="http://www.w3.org/1999/xlink" contentStyleType="text/css" data-diagram-type="DESCRIPTION" height="1032px" preserveAspectRatio="none" style="width:542px;height:1032px;background:#FFFFFF;" version="1.1" viewBox="0 0 542 1032" width="542px" zoomAndPan="magnify"><defs/><g><!--entity doctor--><g class="entity" data-entity="doctor" data-source-line="6" data-uid="ent0002" id="entity_doctor"><rect fill="#ADD8E6" height="56.46" rx="2.5" ry="2.5" style="stroke:#000000;stroke-width:1;" width="101.2646" x="124.2953" y="12"/><text fill="#000000" font-family="Verdana" font-size="10" lengthAdjust="spacing" textLength="81.2646" x="134.2953" y="32.0537">&#1052;&#1045;&#1044;&#1048;&#1062;&#1048;&#1053;&#1057;&#1050;&#1048;&#1049;</text><text fill="#000000" font-family="Verdana" font-size="10" lengthAdjust="spacing" textLength="70.7666" x="134.2953" y="44.207">&#1057;&#1055;&#1045;&#1062;&#1048;&#1040;&#1051;&#1048;&#1057;&#1058;</text><text fill="#000000" font-family="Verdana" font-size="10" lengthAdjust="spacing" textLength="34.2285" x="134.2953" y="56.3604">(&#1042;&#1088;&#1072;&#1095;)</text></g><!--entity process1--><g class="entity" data-entity="process1" data-source-line="9" data-uid="ent0003" id="entity_process1"><ellipse cx="46.9253" cy="307.46" fill="#90EE90" rx="8" ry="8" style="stroke:#000000;stroke-width:1;"/><text fill="#000000" font-family="Verdana" font-size="10" lengthAdjust="spacing" textLength="43.3447" x="11" y="334.5137">&#1054;&#1057;&#1052;&#1054;&#1058;&#1056;</text><text fill="#000000" font-family="Verdana" font-size="10" lengthAdjust="spacing" textLength="56.3037" x="11" y="346.667">&#1055;&#1040;&#1062;&#1048;&#1045;&#1053;&#1058;&#1040;</text><text fill="#000000" font-family="Verdana" font-size="10" lengthAdjust="spacing" textLength="71.8506" x="11" y="358.8204">(&#1055;&#1088;&#1086;&#1094;&#1077;&#1089;&#1089; 4.1)</text></g><!--entity process2--><g class="entity" data-entity="process2" data-source-line="10" data-uid="ent0004" id="entity_process2"><ellipse cx="180.9253" cy="307.46" fill="#90EE90" rx="8" ry="8" style="stroke:#000000;stroke-width:1;"/><text fill="#000000" font-family="Verdana" font-size="10" lengthAdjust="spacing" textLength="56.6455" x="145" y="334.5137">&#1057;&#1054;&#1047;&#1044;&#1040;&#1053;&#1048;&#1045;</text><text fill="#000000" font-family="Verdana" font-size="10" lengthAdjust="spacing" textLength="57.3682" x="145" y="346.667">&#1052;&#1045;&#1044;&#1050;&#1040;&#1056;&#1058;&#1067;</text><text fill="#000000" font-family="Verdana" font-size="10" lengthAdjust="spacing" textLength="71.8506" x="145" y="358.8204">(&#1055;&#1088;&#1086;&#1094;&#1077;&#1089;&#1089; 4.2)</text></g><!--entity process3--><g class="entity" data-entity="process3" data-source-line="11" data-uid="ent0005" id="entity_process3"><ellipse cx="285.9253" cy="191.46" fill="#90EE90" rx="8" ry="8" style="stroke:#000000;stroke-width:1;"/><text fill="#000000" font-family="Verdana" font-size="10" lengthAdjust="spacing" textLength="70.3809" x="250" y="218.5137">&#1053;&#1040;&#1047;&#1053;&#1040;&#1063;&#1045;&#1053;&#1048;&#1071;</text><text fill="#000000" font-family="Verdana" font-size="10" lengthAdjust="spacing" textLength="71.8506" x="250" y="230.667">(&#1055;&#1088;&#1086;&#1094;&#1077;&#1089;&#1089; 4.3)</text></g><!--entity process4--><g class="entity" data-entity="process4" data-source-line="12" data-uid="ent0006" id="entity_process4"><ellipse cx="207.9253" cy="574.92" fill="#FFA500" rx="8" ry="8" style="stroke:#000000;stroke-width:1;"/><text fill="#000000" font-family="Verdana" font-size="10" lengthAdjust="spacing" textLength="69.751" x="172" y="601.9737">&#1057;&#1054;&#1061;&#1056;&#1040;&#1053;&#1045;&#1053;&#1048;&#1045;</text><text fill="#000000" font-family="Verdana" font-size="10" lengthAdjust="spacing" textLength="46.7383" x="172" y="614.127">&#1053;&#1040; &#1044;&#1048;&#1057;&#1050;</text><text fill="#000000" font-family="Verdana" font-size="10" lengthAdjust="spacing" textLength="71.8506" x="172" y="626.2804">(&#1055;&#1088;&#1086;&#1094;&#1077;&#1089;&#1089; 4.4)</text></g><!--entity store5--><g class="entity" data-entity="store5" data-source-line="15" data-uid="ent0007" id="entity_store5"><path d="M331.7353,396.46 C331.7353,386.46 376.9257,386.46 376.9257,386.46 C376.9257,386.46 422.1162,386.46 422.1162,396.46 L422.1162,441.92 C422.1162,451.92 376.9257,451.92 376.9257,451.92 C376.9257,451.92 331.7353,451.92 331.7353,441.92 L331.7353,396.46" fill="#FFC0CB" style="stroke:#000000;stroke-width:1;"/><path d="M331.7353,396.46 C331.7353,406.46 376.9257,406.46 376.9257,406.46 C376.9257,406.46 422.1162,406.46 422.1162,396.46" fill="none" style="stroke:#000000;stroke-width:1;"/><text fill="#000000" font-family="Verdana" font-size="10" lengthAdjust="spacing" textLength="70.3809" x="341.7353" y="420.5137">&#1053;&#1040;&#1047;&#1053;&#1040;&#1063;&#1045;&#1053;&#1048;&#1071;</text><text fill="#000000" font-family="Verdana" font-size="10" lengthAdjust="spacing" textLength="35.2344" x="341.7353" y="432.667">(Excel)</text><text fill="#000000" font-family="Verdana" font-size="10" lengthAdjust="spacing" textLength="43.9619" x="341.7353" y="444.8204">&#128308; &#1056;&#1048;&#1057;&#1050;</text></g><!--entity store3--><g class="entity" data-entity="store3" data-source-line="16" data-uid="ent0008" id="entity_store3"><path d="M296.5453,719.92 C296.5453,709.92 365.9252,709.92 365.9252,709.92 C365.9252,709.92 435.3051,709.92 435.3051,719.92 L435.3051,765.38 C435.3051,775.38 365.9252,775.38 365.9252,775.38 C365.9252,775.38 296.5453,775.38 296.5453,765.38 L296.5453,719.92" fill="#FF0000" style="stroke:#000000;stroke-width:1;"/><path d="M296.5453,719.92 C296.5453,729.92 365.9252,729.92 365.9252,729.92 C365.9252,729.92 435.3051,729.92 435.3051,719.92" fill="none" style="stroke:#000000;stroke-width:1;"/><text fill="#000000" font-family="Verdana" font-size="10" lengthAdjust="spacing" textLength="118.7598" x="306.5453" y="743.9737">&#1052;&#1045;&#1044;&#1048;&#1062;&#1048;&#1053;&#1057;&#1050;&#1048;&#1045; &#1050;&#1040;&#1056;&#1058;&#1067;</text><text fill="#000000" font-family="Verdana" font-size="10" lengthAdjust="spacing" textLength="41.2939" x="306.5453" y="756.127">(&#1055;&#1072;&#1087;&#1082;&#1080;)</text><text fill="#000000" font-family="Verdana" font-size="10" lengthAdjust="spacing" textLength="73.1514" x="306.5453" y="768.2804">&#128308; &#1050;&#1056;&#1048;&#1058;&#1048;&#1063;&#1053;&#1054;</text></g><!--entity all_staff--><g class="entity" data-entity="all_staff" data-source-line="19" data-uid="ent0009" id="entity_all_staff"><rect fill="#FF0000" height="56.46" rx="2.5" ry="2.5" style="stroke:#000000;stroke-width:1;" width="172.6143" x="182.6153" y="861.38"/><text fill="#000000" font-family="Verdana" font-size="10" lengthAdjust="spacing" textLength="93.7842" x="192.6153" y="881.4337">&#1042;&#1057;&#1045; &#1057;&#1054;&#1058;&#1056;&#1059;&#1044;&#1053;&#1048;&#1050;&#1048;</text><text fill="#000000" font-family="Verdana" font-size="10" lengthAdjust="spacing" textLength="98.0225" x="192.6153" y="893.587">(&#1044;&#1086;&#1089;&#1090;&#1091;&#1087; &#1082; &#1076;&#1072;&#1085;&#1085;&#1099;&#1084;)</text><text fill="#000000" font-family="Verdana" font-size="10" lengthAdjust="spacing" textLength="152.6143" x="192.6153" y="905.7404">&#128308; &#1050;&#1056;&#1048;&#1058;&#1048;&#1063;&#1045;&#1057;&#1050;&#1040;&#1071; &#1055;&#1056;&#1054;&#1041;&#1051;&#1045;&#1052;&#1040;</text></g><g class="entity" data-entity="GMN19" data-source-line="36" data-uid="ent0020" id="entity_GMN19"><path d="M364.3953,180.38 L364.3953,202.5333 A0,0 0 0 0 364.3953,202.5333 L377.6953,202.5333 L377.6353,386.29 L385.6953,202.5333 L399.4578,202.5333 A0,0 0 0 0 399.4578,202.5333 L399.4578,190.38 L389.4578,180.38 L364.3953,180.38 A0,0 0 0 0 364.3953,180.38" fill="#FFFFFF" style="stroke:#000000;stroke-width:1;"/><path d="M389.4578,180.38 L389.4578,190.38 L399.4578,190.38 L389.4578,180.38" fill="#FFFFFF" style="stroke:#000000;stroke-width:1;"/><text fill="#000000" font-family="Verdana" font-size="10" lengthAdjust="spacing" textLength="14.0625" x="370.3953" y="195.4337">D5</text></g><g class="entity" data-entity="GMN22" data-source-line="37" data-uid="ent0023" id="entity_GMN22"><path d="M491.3953,563.84 L491.3953,585.9933 L526.4578,585.9933 L526.4578,573.84 L516.4578,563.84 L491.3953,563.84" fill="#FFFFFF" style="stroke:#000000;stroke-width:1;"/><path d="M516.4578,563.84 L516.4578,573.84 L526.4578,573.84 L516.4578,563.84" fill="#FFFFFF" style="stroke:#000000;stroke-width:1;"/><text fill="#000000" font-family="Verdana" font-size="10" lengthAdjust="spacing" textLength="14.0625" x="497.3953" y="578.8937">D3</text></g><g class="entity" data-entity="GMN25" data-source-line="40" data-uid="ent0026" id="entity_GMN25"><path d="M180.3853,978.84 L180.3853,1025.3 A0,0 0 0 0 180.3853,1025.3 L357.4644,1025.3 A0,0 0 0 0 357.4644,1025.3 L357.4644,988.84 L347.4644,978.84 L272.9253,978.84 L268.9253,918.2 L264.9253,978.84 L180.3853,978.84 A0,0 0 0 0 180.3853,978.84" fill="#FFFFFF" style="stroke:#000000;stroke-width:1;"/><path d="M347.4644,978.84 L347.4644,988.84 L357.4644,988.84 L347.4644,978.84" fill="#FFFFFF" style="stroke:#000000;stroke-width:1;"/><text fill="#000000" font-family="Verdana" font-size="10" lengthAdjust="spacing" textLength="140.6396" x="186.3853" y="993.8937">&#1050;&#1056;&#1048;&#1058;&#1048;&#1063;&#1045;&#1057;&#1050;&#1040;&#1071; &#1055;&#1056;&#1054;&#1041;&#1051;&#1045;&#1052;&#1040;:</text><text fill="#000000" font-family="Verdana" font-size="10" lengthAdjust="spacing" textLength="156.0791" x="186.3853" y="1006.047">&#1042;&#1089;&#1077; &#1089;&#1086;&#1090;&#1088;&#1091;&#1076;&#1085;&#1080;&#1082;&#1080; &#1080;&#1084;&#1077;&#1102;&#1090; &#1076;&#1086;&#1089;&#1090;&#1091;&#1087;</text><text fill="#000000" font-family="Verdana" font-size="10" lengthAdjust="spacing" textLength="155.9961" x="186.3853" y="1018.2004">&#1082;&#1086; &#1074;&#1089;&#1077;&#1084; &#1084;&#1077;&#1076;&#1080;&#1094;&#1080;&#1085;&#1089;&#1082;&#1080;&#1084; &#1076;&#1072;&#1085;&#1085;&#1099;&#1084;</text></g><g class="entity" data-entity="GMN28" data-source-line="41" data-uid="ent0029" id="entity_GMN28"><path d="M389.8753,866.38 L389.8753,912.84 L535.9729,912.84 L535.9729,876.38 L525.9729,866.38 L389.8753,866.38" fill="#FFFFFF" style="stroke:#000000;stroke-width:1;"/><path d="M525.9729,866.38 L525.9729,876.38 L535.9729,876.38 L525.9729,866.38" fill="#FFFFFF" style="stroke:#000000;stroke-width:1;"/><text fill="#000000" font-family="Verdana" font-size="10" lengthAdjust="spacing" textLength="64.1113" x="395.8753" y="881.4337">&#1055;&#1056;&#1054;&#1041;&#1051;&#1045;&#1052;&#1067;:</text><text fill="#000000" font-family="Verdana" font-size="10" lengthAdjust="spacing" textLength="101.4697" x="395.8753" y="893.587">- &#1053;&#1077;&#1090; &#1074;&#1077;&#1088;&#1089;&#1080;&#1086;&#1085;&#1085;&#1086;&#1089;&#1090;&#1080;</text><text fill="#000000" font-family="Verdana" font-size="10" lengthAdjust="spacing" textLength="125.0977" x="395.8753" y="905.7404">- &#1053;&#1077;&#1090; &#1072;&#1091;&#1076;&#1080;&#1090;&#1072; &#1080;&#1079;&#1084;&#1077;&#1085;&#1077;&#1085;&#1080;&#1081;</text></g><g class="entity" data-entity="GMN31" data-source-line="42" data-uid="ent0032" id="entity_GMN31"><path d="M301.8453,551.69 L301.8453,598.15 A0,0 0 0 0 301.8453,598.15 L456.0045,598.15 A0,0 0 0 0 456.0045,598.15 L456.0045,561.69 L446.0045,551.69 L382.6253,551.69 L377.3453,452.42 L374.6253,551.69 L301.8453,551.69 A0,0 0 0 0 301.8453,551.69" fill="#FFFFFF" style="stroke:#000000;stroke-width:1;"/><path d="M446.0045,551.69 L446.0045,561.69 L456.0045,561.69 L446.0045,551.69" fill="#FFFFFF" style="stroke:#000000;stroke-width:1;"/><text fill="#000000" font-family="Verdana" font-size="10" lengthAdjust="spacing" textLength="61.7432" x="307.8453" y="566.7437">&#1055;&#1056;&#1054;&#1041;&#1051;&#1045;&#1052;&#1040;:</text><text fill="#000000" font-family="Verdana" font-size="10" lengthAdjust="spacing" textLength="133.1592" x="307.8453" y="578.897">&#1053;&#1072;&#1079;&#1085;&#1072;&#1095;&#1077;&#1085;&#1080;&#1103; &#1076;&#1091;&#1073;&#1083;&#1080;&#1088;&#1091;&#1102;&#1090;&#1089;&#1103;</text><text fill="#000000" font-family="Verdana" font-size="10" lengthAdjust="spacing" textLength="35.6152" x="307.8453" y="591.0504">&#1074; Excel</text></g><!--link doctor to process1--><g class="link" data-entity-1="doctor" data-entity-2="process1" data-source-line="22" data-uid="lnk10" id="link_doctor_process1"><path d="M124.0753,65.18 C110.4453,73.87 97.0053,84.96 87.9253,98.46 C43.1653,165.05 44.5997,263.0678 46.0997,292.4778" fill="none" id="doctor-to-process1" style="stroke:#000000;stroke-width:1;"/><polygon fill="#000000" points="46.4053,298.47,49.9417,289.2779,46.1506,293.4765,41.9521,289.6854,46.4053,298.47" style="stroke:#000000;stroke-width:1;"/><text fill="#000000" font-family="Verdana" font-size="10" lengthAdjust="spacing" textLength="69.8389" x="88.9253" y="109.5137">&#1052;&#1077;&#1076;&#1080;&#1094;&#1080;&#1085;&#1089;&#1082;&#1080;&#1077;</text><text fill="#000000" font-family="Verdana" font-size="10" lengthAdjust="spacing" textLength="38.8672" x="104.4111" y="121.667">&#1076;&#1072;&#1085;&#1085;&#1099;&#1077;</text></g><!--link doctor to process2--><g class="link" data-entity-1="doctor" data-entity-2="process2" data-source-line="23" data-uid="lnk11" id="link_doctor_process2"><path d="M170.8653,68.82 C169.6653,78.2 168.5153,88.77 167.9253,98.46 C163.1753,176.47 174.8287,264.9829 178.8587,292.5929" fill="none" id="doctor-to-process2" style="stroke:#000000;stroke-width:1;"/><polygon fill="#000000" points="179.7253,298.53,182.3835,289.0466,179.0031,293.5824,174.4674,290.2021,179.7253,298.53" style="stroke:#000000;stroke-width:1;"/><text fill="#000000" font-family="Verdana" font-size="10" lengthAdjust="spacing" textLength="69.8389" x="168.9253" y="109.5137">&#1052;&#1077;&#1076;&#1080;&#1094;&#1080;&#1085;&#1089;&#1082;&#1080;&#1077;</text><text fill="#000000" font-family="Verdana" font-size="10" lengthAdjust="spacing" textLength="38.8672" x="184.4111" y="121.667">&#1076;&#1072;&#1085;&#1085;&#1099;&#1077;</text></g><!--link doctor to process3--><g class="link" data-entity-1="doctor" data-entity-2="process3" data-source-line="24" data-uid="lnk12" id="link_doctor_process3"><path d="M216.6353,68.67 C227.5053,77.25 238.5153,87.4 246.9253,98.46 C267.7153,125.8 278.1671,160.0826 282.5171,176.8326" fill="none" id="doctor-to-process3" style="stroke:#000000;stroke-width:1;"/><polygon fill="#000000" points="284.0253,182.64,285.6346,172.9235,282.7685,177.8005,277.8915,174.9344,284.0253,182.64" style="stroke:#000000;stroke-width:1;"/><text fill="#000000" font-family="Verdana" font-size="10" lengthAdjust="spacing" textLength="69.8389" x="263.5553" y="109.5137">&#1052;&#1077;&#1076;&#1080;&#1094;&#1080;&#1085;&#1089;&#1082;&#1080;&#1077;</text><text fill="#000000" font-family="Verdana" font-size="10" lengthAdjust="spacing" textLength="38.8672" x="279.0411" y="121.667">&#1076;&#1072;&#1085;&#1085;&#1099;&#1077;</text></g><!--link process1 to process4--><g class="link" data-entity-1="process1" data-entity-2="process4" data-source-line="26" data-uid="lnk13" id="link_process1_process4"><path d="M48.2753,316.42 C52.3653,338.99 66.0453,404.77 93.9253,451.92 C123.8753,502.57 173.3728,545.809 194.5028,563.109" fill="none" id="process1-to-process4" style="stroke:#000000;stroke-width:1;"/><polygon fill="#000000" points="199.1453,566.91,194.7156,558.1135,195.2766,563.7425,189.6476,564.3035,199.1453,566.91" style="stroke:#000000;stroke-width:1;"/><text fill="#000000" font-family="Verdana" font-size="10" lengthAdjust="spacing" textLength="85.2637" x="94.9253" y="423.2437">&#1044;&#1072;&#1085;&#1085;&#1099;&#1077; &#1086;&#1089;&#1084;&#1086;&#1090;&#1088;&#1072;</text></g><!--link process2 to process4--><g class="link" data-entity-1="process2" data-entity-2="process4" data-source-line="27" data-uid="lnk14" id="link_process2_process4"><path d="M181.7353,316.4 C185.7053,355.48 202.5478,521.0308 206.5178,560.0408" fill="none" id="process2-to-process4" style="stroke:#000000;stroke-width:1;"/><polygon fill="#000000" points="207.1253,566.01,210.1935,556.6513,206.6191,561.0357,202.2346,557.4612,207.1253,566.01" style="stroke:#000000;stroke-width:1;"/><text fill="#000000" font-family="Verdana" font-size="10" lengthAdjust="spacing" textLength="102.1191" x="196.0053" y="423.2437">&#1052;&#1077;&#1076;&#1080;&#1094;&#1080;&#1085;&#1089;&#1082;&#1072;&#1103; &#1082;&#1072;&#1088;&#1090;&#1072;</text></g><!--link process3 to store5--><g class="link" data-entity-1="process3" data-entity-2="store5" data-source-line="28" data-uid="lnk15" id="link_process3_store5"><path d="M285.0753,200.22 C282.7653,224.78 278.2753,302.45 306.9253,356.46 C312.9253,367.77 317.4541,373.9347 326.9841,382.6347" fill="none" id="process3-to-store5" style="stroke:#000000;stroke-width:1;"/><polygon fill="#000000" points="331.4153,386.68,327.4653,377.6579,327.7226,383.3089,322.0716,383.5662,331.4153,386.68" style="stroke:#000000;stroke-width:1;"/><text fill="#000000" font-family="Verdana" font-size="10" lengthAdjust="spacing" textLength="61.9238" x="307.9253" y="311.5137">&#1053;&#1072;&#1079;&#1085;&#1072;&#1095;&#1077;&#1085;&#1080;&#1103;</text></g><!--link store5 to process4--><g class="link" data-entity-1="store5" data-entity-2="process4" data-source-line="30" data-uid="lnk16" id="link_store5_process4"><path d="M331.2853,438.4 C309.1553,448.8 283.2553,463.48 263.9253,481.92 C237.0053,507.61 220.386,543.4045 213.306,560.5445" fill="none" id="store5-to-process4" style="stroke:#000000;stroke-width:1;"/><polygon fill="#000000" points="211.0153,566.09,218.1483,559.2988,212.9242,561.4687,210.7543,556.2446,211.0153,566.09" style="stroke:#000000;stroke-width:1;"/><text fill="#000000" font-family="Verdana" font-size="10" lengthAdjust="spacing" textLength="104.8096" x="264.9253" y="492.9737">&#1044;&#1072;&#1085;&#1085;&#1099;&#1077; &#1085;&#1072;&#1079;&#1085;&#1072;&#1095;&#1077;&#1085;&#1080;&#1081;</text></g><!--link process4 to store3--><g class="link" data-entity-1="process4" data-entity-2="store3" data-source-line="31" data-uid="lnk17" id="link_process4_store3"><path d="M215.5453,583.91 C236.8753,606.29 293.9151,666.1173 331.3351,705.3673" fill="none" id="process4-to-store3" style="stroke:#000000;stroke-width:1;"/><polygon fill="#000000" points="335.4753,709.71,332.1601,700.4359,332.0251,706.0911,326.3699,705.9561,335.4753,709.71" style="stroke:#000000;stroke-width:1;"/><text fill="#000000" font-family="Verdana" font-size="10" lengthAdjust="spacing" textLength="70.1807" x="306.7253" y="664.9737">&#1057;&#1086;&#1093;&#1088;&#1072;&#1085;&#1105;&#1085;&#1085;&#1099;&#1077;</text><text fill="#000000" font-family="Verdana" font-size="10" lengthAdjust="spacing" textLength="56.3184" x="313.6564" y="677.127">&#1076;&#1086;&#1082;&#1091;&#1084;&#1077;&#1085;&#1090;&#1099;</text></g><!--link store3 to all_staff--><g class="link" data-entity-1="store3" data-entity-2="all_staff" data-source-line="33" data-uid="lnk18" id="link_store3_all_staff"><path d="M341.8953,775.7 C334.9853,785.16 327.5353,795.6 320.9253,805.38 C308.6253,823.59 298.6413,839.4587 288.6613,855.8087" fill="none" id="store3-to-all_staff" style="stroke:#000000;stroke-width:1;"/><polygon fill="#000000" points="285.5353,860.93,293.6386,855.3321,288.1403,856.6622,286.8101,851.164,285.5353,860.93" style="stroke:#000000;stroke-width:1;"/><text fill="#000000" font-family="Verdana" font-size="10" lengthAdjust="spacing" textLength="114.707" x="321.9253" y="816.4337">&#1053;&#1045;&#1050;&#1054;&#1053;&#1058;&#1056;&#1054;&#1051;&#1048;&#1056;&#1059;&#1045;&#1052;&#1067;&#1049;</text><text fill="#000000" font-family="Verdana" font-size="10" lengthAdjust="spacing" textLength="42.1387" x="358.2095" y="828.587">&#1044;&#1054;&#1057;&#1058;&#1059;&#1055;</text></g><!--link GMN22 to store3--><g class="link" data-entity-1="GMN22" data-entity-2="store3" data-source-line="37" data-uid="lnk24" id="link_GMN22_store3"><path d="M501.7453,586.47 C494.8853,596.37 484.1153,611.47 473.9253,623.92 C449.3253,653.96 419.3253,686.36 397.1953,709.54" fill="none" id="GMN22-store3" style="stroke:#000000;stroke-width:1;stroke-dasharray:7.0,7.0;"/></g><!--link store3 to GMN28--><g class="link" data-entity-1="store3" data-entity-2="GMN28" data-source-line="41" data-uid="lnk30" id="link_store3_GMN28"><path d="M413.9853,775.62 C424.0853,784.25 433.8253,794.31 440.9253,805.38 C452.7053,823.75 458.2053,848.24 460.7553,865.89" fill="none" id="store3-GMN28" style="stroke:#000000;stroke-width:1;stroke-dasharray:7.0,7.0;"/></g><!--SRC=[ZLNDJXfH5DxFKzpYedLXKmKtBhgfxGjqQz8CC29nd273c3PT-HErZKb50j5I1Q6nBbmu6ebJ2_eAPzwaZz3ld166dx4nXW4lztm_vtxdyinTCbOCLJ3rlAKLb_DMGNVq5PNMCyivnrwricziqtRKnwMyQmnydpKMzLNJVMTRxllyPqDDlzAqvuhArALsy0LFdzegM0ysWw_uvmwVDiZN72FZwbRED5I2ZgXA5JgaNtWTKvDgUF- -OE5J0z_mQeb-uDcareBrWih16dd1pcH2wKMLjJCkH4sO-ToIcpPN3I5lOCjTi0q1w_ZRrJ9v9oDKTO0SuTcY4n0q0CpmLT2sgCJWGvKgzN8wf2auTiOe5gSVY7AEOLWHQXE81x1G0WxGW1nQgc7b1CZdSSWpGyWpySZ7G3YGvvceFAIBEApa45RoSPMdqCCggtsbm5RIVVGz3Zer19rI4xQ3SmlRVCed8IVyXtmShwVeMXQwmMwmfMLrLq_hnSTzlFsKCSp91UjletAje4n425qHXshCgeb2tbeUn8cBIbMDD1eIxkcM_3voJR1RU9sXgXune5EEaHKlDNZnEPh13dj7lHViARhdTj0b3BQfGzvGRiiG0F9cc2Vw2MNi39fOHYNCUh19zufk1pf3dLXXLR5JeWl45yjrsaVegt1S4hswQNueklhYOYIv0OODg8FLaSQ7Gp4rzJeAxfnqhurzFaxNnqxsYDb41Y9fxKHCySoJYvMAAKy-dLlhonseJqbz9TgdkBCu3RZd02Qqliwngd5MELL-MqFlejgar3x4RauIwz4D63tE0sSys8E-Xmt_LzSTBQNVVPvKn1FsfGaRM-4S1Viz3EaB3XRXwJ04ZExss4EbKHn2iLLafoxN64U7RqiE9CVdNExIYbnzBQmr4XAUun1Rxj9jTgTwCdhZh5csQoZNBYXxCUhC_EpuEZkPJpuoHdpz3uyHBcI1IDkkQwymog2R9mx574oLGS2_BM4IOEXQrCiy-EBkMx31ez6VH1JTqfsYAwwaZfBsZiQoCpIierhxZaSKdKFH5FeALd1USMk1vyDsD_hT6zpYYM1kbiToRyAZxYKcbdPsd5OQ4HDMU03-fHmbMiETW8GzRBvISkzg_m00]--></g></svg>