<svg xmlns="http://www.w3.org/2000/svg" xmlns:xlink="http://www.w3.org/1999/xlink" contentStyleType="text/css" data-diagram-type="DESCRIPTION" height="874px" preserveAspectRatio="none" style="width:456px;height:874px;background:#FFFFFF;" version="1.1" viewBox="0 0 456 874" width="456px" zoomAndPan="magnify"><defs/><g><!--entity patient--><g class="entity" data-entity="patient" data-source-line="6" data-uid="ent0002" id="entity_patient"><rect fill="#ADD8E6" height="44.3066" rx="2.5" ry="2.5" style="stroke:#000000;stroke-width:1;" width="127.4951" x="147.59" y="12"/><text fill="#000000" font-family="Verdana" font-size="10" lengthAdjust="spacing" textLength="49.4678" x="157.59" y="32.0537">&#1055;&#1040;&#1062;&#1048;&#1045;&#1053;&#1058;</text><text fill="#000000" font-family="Verdana" font-size="10" lengthAdjust="spacing" textLength="107.4951" x="157.59" y="44.207">(&#1042;&#1085;&#1077;&#1096;&#1085;&#1103;&#1103; &#1089;&#1091;&#1097;&#1085;&#1086;&#1089;&#1090;&#1100;)</text></g><!--entity process1--><g class="entity" data-entity="process1" data-source-line="9" data-uid="ent0003" id="entity_process1"><ellipse cx="211.34" cy="191.31" fill="#90EE90" rx="8" ry="8" style="stroke:#000000;stroke-width:1;"/><text fill="#000000" font-family="Verdana" font-size="10" lengthAdjust="spacing" textLength="41.8018" x="175.4147" y="218.3637">&#1047;&#1040;&#1055;&#1048;&#1057;&#1068;</text><text fill="#000000" font-family="Verdana" font-size="10" lengthAdjust="spacing" textLength="56.3037" x="175.4147" y="230.517">&#1055;&#1040;&#1062;&#1048;&#1045;&#1053;&#1058;&#1040;</text><text fill="#000000" font-family="Verdana" font-size="10" lengthAdjust="spacing" textLength="71.8506" x="175.4147" y="242.6704">(&#1055;&#1088;&#1086;&#1094;&#1077;&#1089;&#1089; 1.1)</text></g><!--entity doctor--><g class="entity" data-entity="doctor" data-source-line="10" data-uid="ent0004" id="entity_doctor"><rect fill="#90EE90" height="56.46" rx="2.5" ry="2.5" style="stroke:#000000;stroke-width:1;" width="101.2646" x="160.71" y="465.77"/><text fill="#000000" font-family="Verdana" font-size="10" lengthAdjust="spacing" textLength="81.2646" x="170.71" y="485.8237">&#1052;&#1045;&#1044;&#1048;&#1062;&#1048;&#1053;&#1057;&#1050;&#1048;&#1049;</text><text fill="#000000" font-family="Verdana" font-size="10" lengthAdjust="spacing" textLength="70.7666" x="170.71" y="497.977">&#1057;&#1055;&#1045;&#1062;&#1048;&#1040;&#1051;&#1048;&#1057;&#1058;</text><text fill="#000000" font-family="Verdana" font-size="10" lengthAdjust="spacing" textLength="71.8506" x="170.71" y="510.1304">(&#1055;&#1088;&#1086;&#1094;&#1077;&#1089;&#1089; 1.2)</text></g><!--entity process3--><g class="entity" data-entity="process3" data-source-line="11" data-uid="ent0005" id="entity_process3"><ellipse cx="211.34" cy="657.23" fill="#90EE90" rx="8" ry="8" style="stroke:#000000;stroke-width:1;"/><text fill="#000000" font-family="Verdana" font-size="10" lengthAdjust="spacing" textLength="56.6455" x="175.4147" y="684.2837">&#1057;&#1054;&#1047;&#1044;&#1040;&#1053;&#1048;&#1045;</text><text fill="#000000" font-family="Verdana" font-size="10" lengthAdjust="spacing" textLength="57.3682" x="175.4147" y="696.437">&#1052;&#1045;&#1044;&#1050;&#1040;&#1056;&#1058;&#1067;</text><text fill="#000000" font-family="Verdana" font-size="10" lengthAdjust="spacing" textLength="71.8506" x="175.4147" y="708.5904">(&#1055;&#1088;&#1086;&#1094;&#1077;&#1089;&#1089; 1.3)</text></g><!--entity store1--><g class="entity" data-entity="store1" data-source-line="14" data-uid="ent0006" id="entity_store1"><path d="M323.37,336.31 C323.37,326.31 381.3436,326.31 381.3436,326.31 C381.3436,326.31 439.3173,326.31 439.3173,336.31 L439.3173,381.77 C439.3173,391.77 381.3436,391.77 381.3436,391.77 C381.3436,391.77 323.37,391.77 323.37,381.77 L323.37,336.31" fill="#FFC0CB" style="stroke:#000000;stroke-width:1;"/><path d="M323.37,336.31 C323.37,346.31 381.3436,346.31 381.3436,346.31 C381.3436,346.31 439.3173,346.31 439.3173,336.31" fill="none" style="stroke:#000000;stroke-width:1;"/><text fill="#000000" font-family="Verdana" font-size="10" lengthAdjust="spacing" textLength="95.9473" x="333.37" y="360.3637">&#1046;&#1059;&#1056;&#1053;&#1040;&#1051; &#1047;&#1040;&#1055;&#1048;&#1057;&#1045;&#1049;</text><text fill="#000000" font-family="Verdana" font-size="10" lengthAdjust="spacing" textLength="35.2344" x="333.37" y="372.517">(Excel)</text><text fill="#000000" font-family="Verdana" font-size="10" lengthAdjust="spacing" textLength="43.9619" x="333.37" y="384.6704">&#128308; &#1056;&#1048;&#1057;&#1050;</text></g><!--entity store2--><g class="entity" data-entity="store2" data-source-line="15" data-uid="ent0007" id="entity_store2"><path d="M11,336.31 C11,326.31 76.3394,326.31 76.3394,326.31 C76.3394,326.31 141.6787,326.31 141.6787,336.31 L141.6787,381.77 C141.6787,391.77 76.3394,391.77 76.3394,391.77 C76.3394,391.77 11,391.77 11,381.77 L11,336.31" fill="#FFC0CB" style="stroke:#000000;stroke-width:1;"/><path d="M11,336.31 C11,346.31 76.3394,346.31 76.3394,346.31 C76.3394,346.31 141.6787,346.31 141.6787,336.31" fill="none" style="stroke:#000000;stroke-width:1;"/><text fill="#000000" font-family="Verdana" font-size="10" lengthAdjust="spacing" textLength="110.6787" x="21" y="360.3637">&#1040;&#1053;&#1050;&#1045;&#1058;&#1067; &#1055;&#1040;&#1062;&#1048;&#1045;&#1053;&#1058;&#1054;&#1042;</text><text fill="#000000" font-family="Verdana" font-size="10" lengthAdjust="spacing" textLength="43.8281" x="21" y="372.517">(&#1060;&#1072;&#1081;&#1083;&#1099;)</text><text fill="#000000" font-family="Verdana" font-size="10" lengthAdjust="spacing" textLength="43.9619" x="21" y="384.6704">&#128308; &#1056;&#1048;&#1057;&#1050;</text></g><!--entity store3--><g class="entity" data-entity="store3" data-source-line="16" data-uid="ent0008" id="entity_store3"><path d="M189.96,802.23 C189.96,792.23 259.3399,792.23 259.3399,792.23 C259.3399,792.23 328.7198,792.23 328.7198,802.23 L328.7198,847.69 C328.7198,857.69 259.3399,857.69 259.3399,857.69 C259.3399,857.69 189.96,857.69 189.96,847.69 L189.96,802.23" fill="#FF0000" style="stroke:#000000;stroke-width:1;"/><path d="M189.96,802.23 C189.96,812.23 259.3399,812.23 259.3399,812.23 C259.3399,812.23 328.7198,812.23 328.7198,802.23" fill="none" style="stroke:#000000;stroke-width:1;"/><text fill="#000000" font-family="Verdana" font-size="10" lengthAdjust="spacing" textLength="118.7598" x="199.96" y="826.2837">&#1052;&#1045;&#1044;&#1048;&#1062;&#1048;&#1053;&#1057;&#1050;&#1048;&#1045; &#1050;&#1040;&#1056;&#1058;&#1067;</text><text fill="#000000" font-family="Verdana" font-size="10" lengthAdjust="spacing" textLength="51.4355" x="199.96" y="838.437">(PDF/JPG)</text><text fill="#000000" font-family="Verdana" font-size="10" lengthAdjust="spacing" textLength="73.1514" x="199.96" y="850.5904">&#128308; &#1050;&#1056;&#1048;&#1058;&#1048;&#1063;&#1053;&#1054;</text></g><g class="entity" data-entity="GMN17" data-source-line="31" data-uid="ent0018" id="entity_GMN17"><path d="M363.81,180.23 L363.81,202.3833 A0,0 0 0 0 363.81,202.3833 L377.34,202.3833 L381.34,326.05 L385.34,202.3833 L398.8725,202.3833 A0,0 0 0 0 398.8725,202.3833 L398.8725,190.23 L388.8725,180.23 L363.81,180.23 A0,0 0 0 0 363.81,180.23" fill="#FFFFFF" style="stroke:#000000;stroke-width:1;"/><path d="M388.8725,180.23 L388.8725,190.23 L398.8725,190.23 L388.8725,180.23" fill="#FFFFFF" style="stroke:#000000;stroke-width:1;"/><text fill="#000000" font-family="Verdana" font-size="10" lengthAdjust="spacing" textLength="14.0625" x="369.81" y="195.2837">D1</text></g><g class="entity" data-entity="GMN20" data-source-line="32" data-uid="ent0021" id="entity_GMN20"><path d="M35.81,180.23 L35.81,202.3833 A0,0 0 0 0 35.81,202.3833 L50.78,202.3833 L71.9,326.05 L58.78,202.3833 L70.8725,202.3833 A0,0 0 0 0 70.8725,202.3833 L70.8725,190.23 L60.8725,180.23 L35.81,180.23 A0,0 0 0 0 35.81,180.23" fill="#FFFFFF" style="stroke:#000000;stroke-width:1;"/><path d="M60.8725,180.23 L60.8725,190.23 L70.8725,190.23 L60.8725,180.23" fill="#FFFFFF" style="stroke:#000000;stroke-width:1;"/><text fill="#000000" font-family="Verdana" font-size="10" lengthAdjust="spacing" textLength="14.0625" x="41.81" y="195.2837">D2</text></g><g class="entity" data-entity="GMN23" data-source-line="33" data-uid="ent0024" id="entity_GMN23"><path d="M289.81,646.15 L289.81,668.3033 L324.8725,668.3033 L324.8725,656.15 L314.8725,646.15 L289.81,646.15" fill="#FFFFFF" style="stroke:#000000;stroke-width:1;"/><path d="M314.8725,646.15 L314.8725,656.15 L324.8725,656.15 L314.8725,646.15" fill="#FFFFFF" style="stroke:#000000;stroke-width:1;"/><text fill="#000000" font-family="Verdana" font-size="10" lengthAdjust="spacing" textLength="14.0625" x="295.81" y="661.2037">D3</text></g><!--link patient to process1--><g class="link" data-entity-1="patient" data-entity-2="process1" data-source-line="19" data-uid="lnk9" id="link_patient_process1"><path d="M211.34,56.73 C211.34,91.87 211.34,153.83 211.34,176.64" fill="none" id="patient-to-process1" style="stroke:#000000;stroke-width:1;"/><polygon fill="#000000" points="211.34,182.64,215.34,173.64,211.34,177.64,207.34,173.64,211.34,182.64" style="stroke:#000000;stroke-width:1;"/><text fill="#000000" font-family="Verdana" font-size="10" lengthAdjust="spacing" textLength="92.1436" x="231.8835" y="97.3637">&#1044;&#1072;&#1085;&#1085;&#1099;&#1077; &#1087;&#1072;&#1094;&#1080;&#1077;&#1085;&#1090;&#1072;</text><text fill="#000000" font-family="Verdana" font-size="10" lengthAdjust="spacing" textLength="131.2305" x="212.34" y="109.517">(&#1060;&#1048;&#1054;, &#1090;&#1077;&#1083;&#1077;&#1092;&#1086;&#1085;, &#1078;&#1072;&#1083;&#1086;&#1073;&#1099;)</text></g><!--link process1 to store1--><g class="link" data-entity-1="process1" data-entity-2="store1" data-source-line="20" data-uid="lnk10" id="link_process1_store1"><path d="M216.71,200.19 C229.3,218.37 262.26,264.13 296.34,296.31 C307.48,306.83 315.6103,313.5573 328.0203,322.5973" fill="none" id="process1-to-store1" style="stroke:#000000;stroke-width:1;"/><polygon fill="#000000" points="332.87,326.13,327.9506,317.5977,328.8286,323.186,323.2403,324.064,332.87,326.13" style="stroke:#000000;stroke-width:1;"/><text fill="#000000" font-family="Verdana" font-size="10" lengthAdjust="spacing" textLength="75.6787" x="297.34" y="281.3637">&#1055;&#1077;&#1088;&#1089;&#1086;&#1085;&#1072;&#1083;&#1100;&#1085;&#1099;&#1077;</text><text fill="#000000" font-family="Verdana" font-size="10" lengthAdjust="spacing" textLength="38.8672" x="315.7458" y="293.517">&#1076;&#1072;&#1085;&#1085;&#1099;&#1077;</text></g><!--link process1 to store2--><g class="link" data-entity-1="process1" data-entity-2="store2" data-source-line="21" data-uid="lnk11" id="link_process1_store2"><path d="M202.54,196.69 C182.87,206.92 134.99,234.23 108.34,270.31 C96.2,286.74 89.8806,302.473 84.9406,320.083" fill="none" id="process1-to-store2" style="stroke:#000000;stroke-width:1;"/><polygon fill="#000000" points="83.32,325.86,89.6022,318.2749,84.6705,321.0458,81.8995,316.1141,83.32,325.86" style="stroke:#000000;stroke-width:1;"/><text fill="#000000" font-family="Verdana" font-size="10" lengthAdjust="spacing" textLength="75.6787" x="109.34" y="281.3637">&#1055;&#1077;&#1088;&#1089;&#1086;&#1085;&#1072;&#1083;&#1100;&#1085;&#1099;&#1077;</text><text fill="#000000" font-family="Verdana" font-size="10" lengthAdjust="spacing" textLength="38.8672" x="127.7458" y="293.517">&#1076;&#1072;&#1085;&#1085;&#1099;&#1077;</text></g><!--link process1 to doctor--><g class="link" data-entity-1="process1" data-entity-2="doctor" data-source-line="22" data-uid="lnk12" id="link_process1_doctor"><path d="M211.34,200.05 C211.34,237.37 211.34,393.71 211.34,459.33" fill="none" id="process1-to-doctor" style="stroke:#000000;stroke-width:1;"/><polygon fill="#000000" points="211.34,465.33,215.34,456.33,211.34,460.33,207.34,456.33,211.34,465.33" style="stroke:#000000;stroke-width:1;"/><text fill="#000000" font-family="Verdana" font-size="10" lengthAdjust="spacing" textLength="75.6787" x="212.34" y="357.0937">&#1055;&#1077;&#1088;&#1089;&#1086;&#1085;&#1072;&#1083;&#1100;&#1085;&#1099;&#1077;</text><text fill="#000000" font-family="Verdana" font-size="10" lengthAdjust="spacing" textLength="38.8672" x="230.7458" y="369.247">&#1076;&#1072;&#1085;&#1085;&#1099;&#1077;</text></g><!--link store1 to doctor--><g class="link" data-entity-1="store1" data-entity-2="doctor" data-source-line="24" data-uid="lnk13" id="link_store1_doctor"><path d="M340.19,392.23 C311.59,414.59 278.6068,440.3944 251.3768,461.6844" fill="none" id="store1-to-doctor" style="stroke:#000000;stroke-width:1;"/><polygon fill="#000000" points="246.65,465.38,256.2039,462.9877,250.589,462.3003,251.2764,456.6854,246.65,465.38" style="stroke:#000000;stroke-width:1;"/><text fill="#000000" font-family="Verdana" font-size="10" lengthAdjust="spacing" textLength="79.3896" x="302.44" y="432.8237">&#1044;&#1072;&#1085;&#1085;&#1099;&#1077; &#1079;&#1072;&#1087;&#1080;&#1089;&#1080;</text></g><!--link store2 to doctor--><g class="link" data-entity-1="store2" data-entity-2="doctor" data-source-line="25" data-uid="lnk14" id="link_store2_doctor"><path d="M76.33,392.2 C77.82,406.79 81.8,423.49 91.34,435.77 C108.41,457.73 130.3326,469.7015 154.7626,478.3315" fill="none" id="store2-to-doctor" style="stroke:#000000;stroke-width:1;"/><polygon fill="#000000" points="160.42,480.33,153.2663,473.5607,155.7055,478.6646,150.6016,481.1038,160.42,480.33" style="stroke:#000000;stroke-width:1;"/><text fill="#000000" font-family="Verdana" font-size="10" lengthAdjust="spacing" textLength="92.7002" x="92.34" y="432.8237">&#1040;&#1085;&#1082;&#1077;&#1090;&#1085;&#1099;&#1077; &#1076;&#1072;&#1085;&#1085;&#1099;&#1077;</text></g><!--link doctor to process3--><g class="link" data-entity-1="doctor" data-entity-2="process3" data-source-line="27" data-uid="lnk15" id="link_doctor_process3"><path d="M211.34,522.72 C211.34,560.53 211.34,620.15 211.34,642.51" fill="none" id="doctor-to-process3" style="stroke:#000000;stroke-width:1;"/><polygon fill="#000000" points="211.34,648.51,215.34,639.51,211.34,643.51,207.34,639.51,211.34,648.51" style="stroke:#000000;stroke-width:1;"/><text fill="#000000" font-family="Verdana" font-size="10" lengthAdjust="spacing" textLength="69.8389" x="212.34" y="563.2837">&#1052;&#1077;&#1076;&#1080;&#1094;&#1080;&#1085;&#1089;&#1082;&#1080;&#1077;</text><text fill="#000000" font-family="Verdana" font-size="10" lengthAdjust="spacing" textLength="38.8672" x="227.8258" y="575.437">&#1076;&#1072;&#1085;&#1085;&#1099;&#1077;</text></g><!--link process3 to store3--><g class="link" data-entity-1="process3" data-entity-2="store3" data-source-line="28" data-uid="lnk16" id="link_process3_store3"><path d="M209.51,666.09 C205.75,683.83 198.45,728.13 210.34,762.23 C214.03,772.82 216.7012,778.2379 223.6312,787.1279" fill="none" id="process3-to-store3" style="stroke:#000000;stroke-width:1;"/><polygon fill="#000000" points="227.32,791.86,224.9415,782.3027,224.246,787.9166,218.6321,787.2211,227.32,791.86" style="stroke:#000000;stroke-width:1;"/><text fill="#000000" font-family="Verdana" font-size="10" lengthAdjust="spacing" textLength="69.4824" x="211.34" y="747.2837">&#1052;&#1077;&#1076;&#1080;&#1094;&#1080;&#1085;&#1089;&#1082;&#1072;&#1103;</text><text fill="#000000" font-family="Verdana" font-size="10" lengthAdjust="spacing" textLength="29.1211" x="231.5207" y="759.437">&#1082;&#1072;&#1088;&#1090;&#1072;</text></g><!--link GMN23 to store3--><g class="link" data-entity-1="GMN23" data-entity-2="store3" data-source-line="33" data-uid="lnk25" id="link_GMN23_store3"><path d="M305.8,668.73 C302.86,687.69 295.82,728.77 285.34,762.23 C282.25,772.11 278.16,782.58 274.15,792.03" fill="none" id="GMN23-store3" style="stroke:#000000;stroke-width:1;stroke-dasharray:7.0,7.0;"/></g><!--SRC=[bLHDRn9H5DtFhtZYGaXQ5TXruKQiYQicRjaCmojCcCwGOOZ65L1hD3I1D50h5X3yMkW23LY4qlw5-_w9Fy7pXk5ZW2uQ0ZFllNlEkVVS-xZZfFa1Prb3rKqbbz7Dh6gh1ooXQfcKRUNDv6FBi6ps8gqxVEayoVVLlE7iMgRpN7_5MVYXejnZT48J6eYt-1tIW8cYE1JliBZ2Muc6YiqrHpLJ1cS1QbELlj4PrQb9tRWPN615HLHMiE8u561gZcLLH-Ucm-uQUYhj98myTsNRee2uDu0NyIapfcYwhRaoxo7JXao7ViPDloXLfQmFoyBtmvwIRMaybmjxKYcRSzEN_pb8Qg2IT4tGD_3y08aEHEhkRfK-kiBTJJAHgKpIqXpOkomoJxr3BQHV0qzJfWpkgMO3Ev-G_ezDl55V-b4VixJgA-9xRd_6D8J1FKPzTsCYokA81U5wXIxeDm8kHPa68IMfEcf2pScCJkapb9koChRaR5qM7dpoKkD6A6x-QzVw367ofE4caqE974vcTJEpJ2SBQm2DKjXAQrfq8glxWjJ-qbYKR-QDhFDkQasT-NpRY-q-UBRtT4xRS8cx-7u7fBMWXuCsJqwd34QNw8f6DFIPfiocSdlxqM9kTf18RHQ4oq3Nr4EVS2-mKQBUjBmpQcqnB0Tenq2y1ljaYz4VuCPu_uN20ygSKl9xNkwuDsWW2g8eCJ9U74-LC2VzXUucUEGMSDmb7u4tiBVGLxoKLz0-RowmkCOy5caOKBmSL-AhY1v1iJJ3-4MyoAKMH5tOEQpjWrawFm7_I7RW1ekY2ujk0lT41M3vBCWc1jp1Q8f3kfHcJ3ii_xsE_DTCCIs7CyVACcj_qS9OU7rVzYOMWUjh9pAbM5Jv3m00]--></g></svg>