<svg xmlns="http://www.w3.org/2000/svg" xmlns:xlink="http://www.w3.org/1999/xlink" contentStyleType="text/css" data-diagram-type="DESCRIPTION" height="712px" preserveAspectRatio="none" style="width:570px;height:712px;background:#FFFFFF;" version="1.1" viewBox="0 0 570 712" width="570px" zoomAndPan="magnify"><defs/><g><!--entity patient--><g class="entity" data-entity="patient" data-source-line="6" data-uid="ent0002" id="entity_patient"><rect fill="#ADD8E6" height="44.3066" rx="2.5" ry="2.5" style="stroke:#000000;stroke-width:1;" width="92.8369" x="145.4" y="12"/><text fill="#000000" font-family="Verdana" font-size="10" lengthAdjust="spacing" textLength="49.4678" x="155.4" y="32.0537">&#1055;&#1040;&#1062;&#1048;&#1045;&#1053;&#1058;</text><text fill="#000000" font-family="Verdana" font-size="10" lengthAdjust="spacing" textLength="72.8369" x="155.4" y="44.207">(&#1055;&#1083;&#1072;&#1090;&#1077;&#1083;&#1100;&#1097;&#1080;&#1082;)</text></g><!--entity tax--><g class="entity" data-entity="tax" data-source-line="7" data-uid="ent0003" id="entity_tax"><rect fill="#ADD8E6" height="56.46" rx="2.5" ry="2.5" style="stroke:#000000;stroke-width:1;" width="127.4951" x="124.07" y="649.77"/><text fill="#000000" font-family="Verdana" font-size="10" lengthAdjust="spacing" textLength="63.8525" x="134.07" y="669.8237">&#1053;&#1040;&#1051;&#1054;&#1043;&#1054;&#1042;&#1040;&#1071;</text><text fill="#000000" font-family="Verdana" font-size="10" lengthAdjust="spacing" textLength="68.9746" x="134.07" y="681.977">&#1054;&#1058;&#1063;&#1045;&#1058;&#1053;&#1054;&#1057;&#1058;&#1068;</text><text fill="#000000" font-family="Verdana" font-size="10" lengthAdjust="spacing" textLength="107.4951" x="134.07" y="694.1304">(&#1042;&#1085;&#1077;&#1096;&#1085;&#1103;&#1103; &#1089;&#1091;&#1097;&#1085;&#1086;&#1089;&#1090;&#1100;)</text></g><!--entity process1--><g class="entity" data-entity="process1" data-source-line="10" data-uid="ent0004" id="entity_process1"><ellipse cx="191.82" cy="191.31" fill="#90EE90" rx="8" ry="8" style="stroke:#000000;stroke-width:1;"/><text fill="#000000" font-family="Verdana" font-size="10" lengthAdjust="spacing" textLength="35.8008" x="155.8947" y="218.3637">&#1055;&#1056;&#1048;&#1045;&#1052;</text><text fill="#000000" font-family="Verdana" font-size="10" lengthAdjust="spacing" textLength="50.7471" x="155.8947" y="230.517">&#1055;&#1051;&#1040;&#1058;&#1045;&#1046;&#1040;</text><text fill="#000000" font-family="Verdana" font-size="10" lengthAdjust="spacing" textLength="71.8506" x="155.8947" y="242.6704">(&#1055;&#1088;&#1086;&#1094;&#1077;&#1089;&#1089; 3.1)</text></g><!--entity process3--><g class="entity" data-entity="process3" data-source-line="11" data-uid="ent0005" id="entity_process3"><ellipse cx="191.82" cy="514.77" fill="#90EE90" rx="8" ry="8" style="stroke:#000000;stroke-width:1;"/><text fill="#000000" font-family="Verdana" font-size="10" lengthAdjust="spacing" textLength="87.1387" x="148.2507" y="541.8237">&#1041;&#1059;&#1061;&#1043;&#1040;&#1051;&#1058;&#1045;&#1056;&#1057;&#1050;&#1048;&#1049;</text><text fill="#000000" font-family="Verdana" font-size="10" lengthAdjust="spacing" textLength="25.7568" x="148.2507" y="553.977">&#1059;&#1063;&#1045;&#1058;</text><text fill="#000000" font-family="Verdana" font-size="10" lengthAdjust="spacing" textLength="71.8506" x="148.2507" y="566.1304">(&#1055;&#1088;&#1086;&#1094;&#1077;&#1089;&#1089; 3.3)</text></g><!--entity kkm--><g class="entity" data-entity="kkm" data-source-line="14" data-uid="ent0006" id="entity_kkm"><rect fill="#90EE90" height="56.46" rx="2.5" ry="2.5" style="stroke:#000000;stroke-width:1;" width="58.7061" x="30.46" y="318.81"/><text fill="#000000" font-family="Verdana" font-size="10" lengthAdjust="spacing" textLength="22.2852" x="40.46" y="338.8637">&#1050;&#1050;&#1052;</text><text fill="#000000" font-family="Verdana" font-size="10" lengthAdjust="spacing" textLength="38.7061" x="40.46" y="351.017">(&#1050;&#1072;&#1089;&#1089;&#1072;)</text><text fill="#000000" font-family="Verdana" font-size="10" lengthAdjust="spacing" textLength="31.3154" x="40.46" y="363.1704">&#9989; &#1054;&#1050;</text></g><!--entity one?--><g class="entity" data-entity="one&#1089;" data-source-line="15" data-uid="ent0007" id="entity_one&#1089;"><rect fill="#90EE90" height="44.3066" rx="2.5" ry="2.5" style="stroke:#000000;stroke-width:1;" width="114.1797" x="134.73" y="324.89"/><text fill="#000000" font-family="Verdana" font-size="10" lengthAdjust="spacing" textLength="94.1797" x="144.73" y="344.9437">1&#1057;: &#1041;&#1059;&#1061;&#1043;&#1040;&#1051;&#1058;&#1045;&#1056;&#1048;&#1071;</text><text fill="#000000" font-family="Verdana" font-size="10" lengthAdjust="spacing" textLength="31.3154" x="144.73" y="357.097">&#9989; &#1054;&#1050;</text></g><!--entity fiscal--><g class="entity" data-entity="fiscal" data-source-line="16" data-uid="ent0008" id="entity_fiscal"><rect fill="#90EE90" height="56.46" rx="2.5" ry="2.5" style="stroke:#000000;stroke-width:1;" width="93.6328" x="12" y="486.54"/><text fill="#000000" font-family="Verdana" font-size="10" lengthAdjust="spacing" textLength="73.6328" x="22" y="506.5937">&#1060;&#1048;&#1057;&#1050;&#1040;&#1051;&#1068;&#1053;&#1067;&#1045;</text><text fill="#000000" font-family="Verdana" font-size="10" lengthAdjust="spacing" textLength="66.04" x="22" y="518.747">&#1044;&#1054;&#1050;&#1059;&#1052;&#1045;&#1053;&#1058;&#1067;</text><text fill="#000000" font-family="Verdana" font-size="10" lengthAdjust="spacing" textLength="31.3154" x="22" y="530.9004">&#9989; &#1054;&#1050;</text></g><!--entity store_excel--><g class="entity" data-entity="store_excel" data-source-line="19" data-uid="ent0009" id="entity_store_excel"><path d="M289.31,324.31 C289.31,314.31 342.8159,314.31 342.8159,314.31 C342.8159,314.31 396.3217,314.31 396.3217,324.31 L396.3217,369.77 C396.3217,379.77 342.8159,379.77 342.8159,379.77 C342.8159,379.77 289.31,379.77 289.31,369.77 L289.31,324.31" fill="#FFC0CB" style="stroke:#000000;stroke-width:1;"/><path d="M289.31,324.31 C289.31,334.31 342.8159,334.31 342.8159,334.31 C342.8159,334.31 396.3217,334.31 396.3217,324.31" fill="none" style="stroke:#000000;stroke-width:1;"/><text fill="#000000" font-family="Verdana" font-size="10" lengthAdjust="spacing" textLength="87.0117" x="299.31" y="348.3637">&#1059;&#1063;&#1045;&#1058; &#1055;&#1051;&#1040;&#1058;&#1045;&#1046;&#1045;&#1049;</text><text fill="#000000" font-family="Verdana" font-size="10" lengthAdjust="spacing" textLength="35.2344" x="299.31" y="360.517">(Excel)</text><text fill="#000000" font-family="Verdana" font-size="10" lengthAdjust="spacing" textLength="43.9619" x="299.31" y="372.6704">&#128308; &#1056;&#1048;&#1057;&#1050;</text></g><!--entity store_disk--><g class="entity" data-entity="store_disk" data-source-line="20" data-uid="ent0010" id="entity_store_disk"><path d="M296.53,498.12 C296.53,488.12 342.8166,488.12 342.8166,488.12 C342.8166,488.12 389.1032,488.12 389.1032,498.12 L389.1032,531.4266 C389.1032,541.4266 342.8166,541.4266 342.8166,541.4266 C342.8166,541.4266 296.53,541.4266 296.53,531.4266 L296.53,498.12" fill="#FFC0CB" style="stroke:#000000;stroke-width:1;"/><path d="M296.53,498.12 C296.53,508.12 342.8166,508.12 342.8166,508.12 C342.8166,508.12 389.1032,508.12 389.1032,498.12" fill="none" style="stroke:#000000;stroke-width:1;"/><text fill="#000000" font-family="Verdana" font-size="10" lengthAdjust="spacing" textLength="72.5732" x="306.53" y="522.1737">&#1054;&#1041;&#1065;&#1048;&#1049; &#1044;&#1048;&#1057;&#1050;</text><text fill="#000000" font-family="Verdana" font-size="10" lengthAdjust="spacing" textLength="43.9619" x="306.53" y="534.327">&#128308; &#1056;&#1048;&#1057;&#1050;</text></g><g class="entity" data-entity="GMN19" data-source-line="34" data-uid="ent0020" id="entity_GMN19"><path d="M424.59,491.54 L424.59,538 L563.0412,538 L563.0412,501.54 L553.0412,491.54 L424.59,491.54" fill="#FFFFFF" style="stroke:#000000;stroke-width:1;"/><path d="M553.0412,491.54 L553.0412,501.54 L563.0412,501.54 L553.0412,491.54" fill="#FFFFFF" style="stroke:#000000;stroke-width:1;"/><text fill="#000000" font-family="Verdana" font-size="10" lengthAdjust="spacing" textLength="61.7432" x="430.59" y="506.5937">&#1055;&#1056;&#1054;&#1041;&#1051;&#1045;&#1052;&#1040;:</text><text fill="#000000" font-family="Verdana" font-size="10" lengthAdjust="spacing" textLength="117.4512" x="430.59" y="518.747">&#1044;&#1091;&#1073;&#1083;&#1080;&#1088;&#1086;&#1074;&#1072;&#1085;&#1080;&#1077; &#1076;&#1072;&#1085;&#1085;&#1099;&#1093;</text><text fill="#000000" font-family="Verdana" font-size="10" lengthAdjust="spacing" textLength="62.3877" x="430.59" y="530.9004">&#1074; Excel &#1080; 1&#1057;</text></g><g class="entity" data-entity="GMN22" data-source-line="35" data-uid="ent0023" id="entity_GMN22"><path d="M286.83,654.77 L286.83,701.23 A0,0 0 0 0 286.83,701.23 L414.8124,701.23 A0,0 0 0 0 414.8124,701.23 L414.8124,664.77 L404.8124,654.77 L353.69,654.77 L344.1,541.67 L345.69,654.77 L286.83,654.77 A0,0 0 0 0 286.83,654.77" fill="#FFFFFF" style="stroke:#000000;stroke-width:1;"/><path d="M404.8124,654.77 L404.8124,664.77 L414.8124,664.77 L404.8124,654.77" fill="#FFFFFF" style="stroke:#000000;stroke-width:1;"/><text fill="#000000" font-family="Verdana" font-size="10" lengthAdjust="spacing" textLength="61.7432" x="292.83" y="669.8237">&#1055;&#1056;&#1054;&#1041;&#1051;&#1045;&#1052;&#1040;:</text><text fill="#000000" font-family="Verdana" font-size="10" lengthAdjust="spacing" textLength="106.9824" x="292.83" y="681.977">&#1060;&#1080;&#1085;&#1072;&#1085;&#1089;&#1086;&#1074;&#1099;&#1077; &#1076;&#1072;&#1085;&#1085;&#1099;&#1077;</text><text fill="#000000" font-family="Verdana" font-size="10" lengthAdjust="spacing" textLength="83.252" x="292.83" y="694.1304">&#1085;&#1072; &#1086;&#1073;&#1097;&#1077;&#1084; &#1076;&#1080;&#1089;&#1082;&#1077;</text></g><!--link patient to process1--><g class="link" data-entity-1="patient" data-entity-2="process1" data-source-line="23" data-uid="lnk11" id="link_patient_process1"><path d="M191.82,56.73 C191.82,91.87 191.82,153.83 191.82,176.64" fill="none" id="patient-to-process1" style="stroke:#000000;stroke-width:1;"/><polygon fill="#000000" points="191.82,182.64,195.82,173.64,191.82,177.64,187.82,173.64,191.82,182.64" style="stroke:#000000;stroke-width:1;"/><text fill="#000000" font-family="Verdana" font-size="10" lengthAdjust="spacing" textLength="91.1182" x="192.82" y="97.3637">&#1047;&#1072;&#1087;&#1088;&#1086;&#1089; &#1085;&#1072; &#1086;&#1087;&#1083;&#1072;&#1090;&#1091;</text><text fill="#000000" font-family="Verdana" font-size="10" lengthAdjust="spacing" textLength="81.9238" x="197.4172" y="109.517">(&#1091;&#1089;&#1083;&#1091;&#1075;&#1080;, &#1089;&#1091;&#1084;&#1084;&#1072;)</text></g><!--link process1 to kkm--><g class="link" data-entity-1="process1" data-entity-2="kkm" data-source-line="24" data-uid="lnk12" id="link_process1_kkm"><path d="M182.91,197.48 C164.34,208.66 121.03,236.76 94.82,270.31 C83.58,284.69 77.1073,297.669 71.2073,312.819" fill="none" id="process1-to-kkm" style="stroke:#000000;stroke-width:1;"/><polygon fill="#000000" points="69.03,318.41,76.0233,311.4751,70.8445,313.7508,68.5687,308.572,69.03,318.41" style="stroke:#000000;stroke-width:1;"/><text fill="#000000" font-family="Verdana" font-size="10" lengthAdjust="spacing" textLength="87.1094" x="95.82" y="281.3637">&#1044;&#1072;&#1085;&#1085;&#1099;&#1077; &#1087;&#1083;&#1072;&#1090;&#1077;&#1078;&#1072;</text></g><!--link process1 to store_excel--><g class="link" data-entity-1="process1" data-entity-2="store_excel" data-source-line="25" data-uid="lnk13" id="link_process1_store_excel"><path d="M200.79,198.27 C218.75,210.45 259.89,239.66 288.82,270.31 C301.34,283.58 309.9766,294.9146 319.4666,308.9946" fill="none" id="process1-to-store_excel" style="stroke:#000000;stroke-width:1;"/><polygon fill="#000000" points="322.82,313.97,321.1068,304.2713,320.0255,309.8238,314.4729,308.7425,322.82,313.97" style="stroke:#000000;stroke-width:1;"/><text fill="#000000" font-family="Verdana" font-size="10" lengthAdjust="spacing" textLength="87.1094" x="301.51" y="281.3637">&#1044;&#1072;&#1085;&#1085;&#1099;&#1077; &#1087;&#1083;&#1072;&#1090;&#1077;&#1078;&#1072;</text></g><!--link process1 to one?--><g class="link" data-entity-1="process1" data-entity-2="one&#1089;" data-source-line="26" data-uid="lnk14" id="link_process1_one&#1089;"><path d="M191.82,200.14 C191.82,222.97 191.82,283.97 191.82,318.67" fill="none" id="process1-to-one&#1089;" style="stroke:#000000;stroke-width:1;"/><polygon fill="#000000" points="191.82,324.67,195.82,315.67,191.82,319.67,187.82,315.67,191.82,324.67" style="stroke:#000000;stroke-width:1;"/><text fill="#000000" font-family="Verdana" font-size="10" lengthAdjust="spacing" textLength="87.1094" x="192.82" y="281.3637">&#1044;&#1072;&#1085;&#1085;&#1099;&#1077; &#1087;&#1083;&#1072;&#1090;&#1077;&#1078;&#1072;</text></g><!--link kkm to fiscal--><g class="link" data-entity-1="kkm" data-entity-2="fiscal" data-source-line="28" data-uid="lnk15" id="link_kkm_fiscal"><path d="M59.65,375.41 C59.47,406.02 59.2071,449.3401 59.0171,480.0901" fill="none" id="kkm-to-fiscal" style="stroke:#000000;stroke-width:1;"/><polygon fill="#000000" points="58.98,486.09,63.0355,477.1149,59.0109,481.0901,55.0357,477.0655,58.98,486.09" style="stroke:#000000;stroke-width:1;"/><text fill="#000000" font-family="Verdana" font-size="10" lengthAdjust="spacing" textLength="64.043" x="60.44" y="420.8237">&#1060;&#1080;&#1089;&#1082;&#1072;&#1083;&#1100;&#1085;&#1099;&#1077;</text><text fill="#000000" font-family="Verdana" font-size="10" lengthAdjust="spacing" textLength="38.8672" x="73.0279" y="432.977">&#1076;&#1072;&#1085;&#1085;&#1099;&#1077;</text></g><!--link store_excel to store_disk--><g class="link" data-entity-1="store_excel" data-entity-2="store_disk" data-source-line="29" data-uid="lnk16" id="link_store_excel_store_disk"><path d="M342.82,379.99 C342.82,411.32 342.82,452.48 342.82,481.64" fill="none" id="store_excel-to-store_disk" style="stroke:#000000;stroke-width:1;"/><polygon fill="#000000" points="342.82,487.64,346.82,478.64,342.82,482.64,338.82,478.64,342.82,487.64" style="stroke:#000000;stroke-width:1;"/><text fill="#000000" font-family="Verdana" font-size="10" lengthAdjust="spacing" textLength="75.1074" x="343.82" y="420.8237">&#1044;&#1091;&#1073;&#1083;&#1080;&#1088;&#1086;&#1074;&#1072;&#1085;&#1080;&#1077;</text><text fill="#000000" font-family="Verdana" font-size="10" lengthAdjust="spacing" textLength="38.8281" x="361.9596" y="432.977">&#1076;&#1072;&#1085;&#1085;&#1099;&#1093;</text></g><!--link one? to process3--><g class="link" data-entity-1="one&#1089;" data-entity-2="process3" data-source-line="30" data-uid="lnk17" id="link_one&#1089;_process3"><path d="M191.82,369.37 C191.82,406.61 191.82,475.84 191.82,500.07" fill="none" id="one&#1089;-to-process3" style="stroke:#000000;stroke-width:1;"/><polygon fill="#000000" points="191.82,506.07,195.82,497.07,191.82,501.07,187.82,497.07,191.82,506.07" style="stroke:#000000;stroke-width:1;"/><text fill="#000000" font-family="Verdana" font-size="10" lengthAdjust="spacing" textLength="64.5996" x="192.82" y="420.8237">&#1060;&#1080;&#1085;&#1072;&#1085;&#1089;&#1086;&#1074;&#1099;&#1077;</text><text fill="#000000" font-family="Verdana" font-size="10" lengthAdjust="spacing" textLength="38.8672" x="205.6862" y="432.977">&#1076;&#1072;&#1085;&#1085;&#1099;&#1077;</text></g><!--link process3 to tax--><g class="link" data-entity-1="process3" data-entity-2="tax" data-source-line="31" data-uid="lnk18" id="link_process3_tax"><path d="M191.62,523.55 C191.07,546 189.5894,605.7519 188.6494,643.5019" fill="none" id="process3-to-tax" style="stroke:#000000;stroke-width:1;"/><polygon fill="#000000" points="188.5,649.5,192.7228,640.6024,188.6245,644.5015,184.7253,640.4032,188.5,649.5" style="stroke:#000000;stroke-width:1;"/><text fill="#000000" font-family="Verdana" font-size="10" lengthAdjust="spacing" textLength="54.5264" x="191.7844" y="604.8237">&#1053;&#1072;&#1083;&#1086;&#1075;&#1086;&#1074;&#1072;&#1103;</text><text fill="#000000" font-family="Verdana" font-size="10" lengthAdjust="spacing" textLength="56.4551" x="190.82" y="616.977">&#1086;&#1090;&#1095;&#1105;&#1090;&#1085;&#1086;&#1089;&#1090;&#1100;</text></g><!--link store_excel to GMN19--><g class="link" data-entity-1="store_excel" data-entity-2="GMN19" data-source-line="34" data-uid="lnk21" id="link_store_excel_GMN19"><path d="M393.49,380.05 C405.48,388.87 417.7,399 427.82,409.77 C451.24,434.71 471.17,469.1 482.82,491.39" fill="none" id="store_excel-GMN19" style="stroke:#000000;stroke-width:1;stroke-dasharray:7.0,7.0;"/></g><!--SRC=[bLJRJXDH57sVhpYM1zj4Z4tV-k2BqH_mbSHCsqEPT3hJp0oH-6GXg0II5gIAfL0AeZ6GE5og3TTVsESN_08_mNNEJDkPEiIO1XWwUw-rrzhhd7lU7AzoLZDrmzBSYc7LT4Ulie9Uh9GTUzugFR5Dss4lvmoFHzwN-Am-RthFRCjxRhpYBFj8q-upsg1hwejt-3sWFXDriIHMyCyDdXPfe3cywEbMsUGiHLrgqXVQeXRjqFwCbSONb-IZh4-NOWrj0xh8f9Zkifhk6Tpos9HfbEUyWZdFOq0x0DgcNNgFdmqyVv-nyBHFNm6zZxUxrCFVOqan6ayqH6DYFB4Mi7dwGfH9gkgArwXvWzOwFgjQqN2AeOOzfQ03oYw6Q8AeHH-egVH4krZkOJPKuzX5xhhPaAJiS6wD4TVfW0uXHKgIM7iOlWsEJs0u22GbOUTYsBaOjbJGeu5QGP-kn2fBqqyu3OV5YbY7_cknIlrCpDGsFXt9r4ObECZFp5Y_EiiCThOLLwLIZT54khFKoxC4ALjoDp4Gs-AO_muO-emEALyY76EJHzI23Pko6zYT83fqD84vQxX5tVpBWaDOvgjWNahXv3CwLrz0lLXcQMIX0LzEKN0L-57IFRsWktAIq7eMst9BRYNzTA78JPZpkxjvpfJ8NZY8wzaEVy7bUpPLCwnA574N_doJYsKGf7hkXYWPRYL4K774wXVfXYve4DEW3G_AzFJZSSpo8Fk8ebiLcJf3DQJVq6rmtCGID41x7QTkYSvey42T2xh2ny-aj16E19KxbtYRGr8SyY4GilM3_8c6g0N_rHW4uryjcXn8beSxpwlG8EhmnfVNID27q9oFKL9QTAhnbCfbnGZv9oebS0o1258JGn7BAIqOCU9rRiWlBKPLNNOdyO_gPREyR_Bg6iF4w3WBE4K3NTYpU2lM8NXqIQN6Dv8QCZZHUEmZl7AhEAwH6zUoFSuAjkVPLMRFJkn3tLyoYDlo3gDcNfwkPF6neA7ibAdSCqGGfpsP9ZGqYIN191Rr22LXJ4zmLA5HlWtssjV-0000]--></g></svg>