<svg xmlns="http://www.w3.org/2000/svg" xmlns:xlink="http://www.w3.org/1999/xlink" contentStyleType="text/css" data-diagram-type="DESCRIPTION" height="950px" preserveAspectRatio="none" style="width:1099px;height:950px;background:#FFFFFF;" version="1.1" viewBox="0 0 1099 950" width="1099px" zoomAndPan="magnify"><defs/><g><!--entity lab--><g class="entity" data-entity="lab" data-source-line="6" data-uid="ent0002" id="entity_lab"><rect fill="#90EE90" height="56.46" rx="2.5" ry="2.5" style="stroke:#000000;stroke-width:1;" width="96.4014" x="262.99" y="12"/><text fill="#000000" font-family="Verdana" font-size="10" lengthAdjust="spacing" textLength="52.6318" x="272.99" y="32.0537">&#1042;&#1053;&#1045;&#1064;&#1053;&#1071;&#1071;</text><text fill="#000000" font-family="Verdana" font-size="10" lengthAdjust="spacing" textLength="76.4014" x="272.99" y="44.207">&#1051;&#1040;&#1041;&#1054;&#1056;&#1040;&#1058;&#1054;&#1056;&#1048;&#1071;</text><text fill="#000000" font-family="Verdana" font-size="10" lengthAdjust="spacing" textLength="62.9268" x="272.99" y="56.3604">&#9989; &#1055;&#1040;&#1056;&#1058;&#1053;&#1025;&#1056;</text></g><!--entity secure_mail--><g class="entity" data-entity="secure_mail" data-source-line="9" data-uid="ent0003" id="entity_secure_mail"><ellipse cx="311.19" cy="203.46" fill="#90EE90" rx="8" ry="8" style="stroke:#000000;stroke-width:1;"/><text fill="#000000" font-family="Verdana" font-size="10" lengthAdjust="spacing" textLength="76.6455" x="272.8672" y="230.5137">&#1047;&#1040;&#1065;&#1048;&#1065;&#1025;&#1053;&#1053;&#1040;&#1071;</text><text fill="#000000" font-family="Verdana" font-size="10" lengthAdjust="spacing" textLength="35.5029" x="272.8672" y="242.667">&#1055;&#1054;&#1063;&#1058;&#1040;</text><text fill="#000000" font-family="Verdana" font-size="10" lengthAdjust="spacing" textLength="55.2803" x="272.8672" y="254.8204">&#9989; S/MIME</text></g><!--entity gateway--><g class="entity" data-entity="gateway" data-source-line="10" data-uid="ent0004" id="entity_gateway"><ellipse cx="288.19" cy="387.46" fill="#90EE90" rx="8" ry="8" style="stroke:#000000;stroke-width:1;"/><text fill="#000000" font-family="Verdana" font-size="10" lengthAdjust="spacing" textLength="100.7617" x="237.8091" y="414.5137">&#1048;&#1053;&#1058;&#1045;&#1043;&#1056;&#1040;&#1062;&#1048;&#1054;&#1053;&#1053;&#1067;&#1049;</text><text fill="#000000" font-family="Verdana" font-size="10" lengthAdjust="spacing" textLength="34.1455" x="237.8091" y="426.667">&#1064;&#1051;&#1070;&#1047;</text><text fill="#000000" font-family="Verdana" font-size="10" lengthAdjust="spacing" textLength="71.75" x="237.8091" y="438.8204">&#9989; &#1047;&#1040;&#1065;&#1048;&#1065;&#1025;&#1053;</text></g><!--entity doctor--><g class="entity" data-entity="doctor" data-source-line="11" data-uid="ent0005" id="entity_doctor"><rect fill="#90EE90" height="44.3066" rx="2.5" ry="2.5" style="stroke:#000000;stroke-width:1;" width="51.3154" x="625.54" y="686.07"/><text fill="#000000" font-family="Verdana" font-size="10" lengthAdjust="spacing" textLength="26.8408" x="635.54" y="706.1237">&#1042;&#1056;&#1040;&#1063;</text><text fill="#000000" font-family="Verdana" font-size="10" lengthAdjust="spacing" textLength="31.3154" x="635.54" y="718.277">&#9989; &#1054;&#1050;</text></g><!--entity hsm--><g class="entity" data-entity="hsm" data-source-line="14" data-uid="ent0006" id="entity_hsm"><rect fill="#90EE90" height="56.46" rx="2.5" ry="2.5" style="stroke:#000000;stroke-width:1;" width="105.6563" x="99.36" y="175.23"/><text fill="#000000" font-family="Verdana" font-size="10" lengthAdjust="spacing" textLength="65.5322" x="109.36" y="195.2837">HSM &#1050;&#1051;&#1070;&#1063;&#1048;</text><text fill="#000000" font-family="Verdana" font-size="10" lengthAdjust="spacing" textLength="85.6563" x="109.36" y="207.437">&#9989; &#1040;&#1055;&#1055;&#1040;&#1056;&#1040;&#1058;&#1053;&#1040;&#1071;</text><text fill="#000000" font-family="Verdana" font-size="10" lengthAdjust="spacing" textLength="43.9453" x="109.36" y="219.5904">&#1047;&#1040;&#1065;&#1048;&#1058;&#1040;</text></g><!--entity lineage--><g class="entity" data-entity="lineage" data-source-line="15" data-uid="ent0007" id="entity_lineage"><rect fill="#ADD8E6" height="44.3066" rx="2.5" ry="2.5" style="stroke:#000000;stroke-width:1;" width="123.4688" x="589.46" y="181.3"/><text fill="#000000" font-family="Verdana" font-size="10" lengthAdjust="spacing" textLength="75.5469" x="599.46" y="201.3537">DATA LINEAGE</text><text fill="#000000" font-family="Verdana" font-size="10" lengthAdjust="spacing" textLength="103.4688" x="599.46" y="213.507">&#9989; &#1054;&#1058;&#1057;&#1051;&#1045;&#1046;&#1048;&#1042;&#1040;&#1053;&#1048;&#1045;</text></g><!--entity backup--><g class="entity" data-entity="backup" data-source-line="16" data-uid="ent0008" id="entity_backup"><rect fill="#FFA500" height="44.3066" rx="2.5" ry="2.5" style="stroke:#000000;stroke-width:1;" width="113.6865" x="763.35" y="365.3"/><text fill="#000000" font-family="Verdana" font-size="10" lengthAdjust="spacing" textLength="93.6865" x="773.35" y="385.3537">BACKUP &#1057;&#1048;&#1057;&#1058;&#1045;&#1052;&#1040;</text><text fill="#000000" font-family="Verdana" font-size="10" lengthAdjust="spacing" textLength="63.4395" x="773.35" y="397.507">&#9989; &#1056;&#1045;&#1047;&#1045;&#1056;&#1042;&#1067;</text></g><!--entity tagging--><g class="entity" data-entity="tagging" data-source-line="19" data-uid="ent0009" id="entity_tagging"><path d="M238.38,532.46 C238.38,522.46 288.1905,522.46 288.1905,522.46 C288.1905,522.46 338.0011,522.46 338.0011,532.46 L338.0011,590.0733 C338.0011,600.0733 288.1905,600.0733 288.1905,600.0733 C288.1905,600.0733 238.38,600.0733 238.38,590.0733 L238.38,532.46" fill="#90EE90" style="stroke:#000000;stroke-width:1;"/><path d="M238.38,532.46 C238.38,542.46 288.1905,542.46 288.1905,542.46 C288.1905,542.46 338.0011,542.46 338.0011,532.46" fill="none" style="stroke:#000000;stroke-width:1;"/><text fill="#000000" font-family="Verdana" font-size="10" lengthAdjust="spacing" textLength="49.2188" x="248.38" y="556.5137">&#1057;&#1048;&#1057;&#1058;&#1045;&#1052;&#1040;</text><text fill="#000000" font-family="Verdana" font-size="10" lengthAdjust="spacing" textLength="75.3271" x="248.38" y="568.667">&#1058;&#1045;&#1043;&#1048;&#1056;&#1054;&#1042;&#1040;&#1053;&#1048;&#1071;</text><text fill="#000000" font-family="Verdana" font-size="10" lengthAdjust="spacing" textLength="56.4307" x="248.38" y="580.8204">PHI_TESTS</text><text fill="#000000" font-family="Verdana" font-size="10" lengthAdjust="spacing" textLength="79.6211" x="248.38" y="592.9737">&#9989; &#1047;&#1040;&#1065;&#1048;&#1065;&#1045;&#1053;&#1054;</text></g><!--entity secure_storage--><g class="entity" data-entity="secure_storage" data-source-line="20" data-uid="ent0010" id="entity_secure_storage"><path d="M598.37,532.46 C598.37,522.46 651.1923,522.46 651.1923,522.46 C651.1923,522.46 704.0145,522.46 704.0145,532.46 L704.0145,590.0733 C704.0145,600.0733 651.1923,600.0733 651.1923,600.0733 C651.1923,600.0733 598.37,600.0733 598.37,590.0733 L598.37,532.46" fill="#90EE90" style="stroke:#000000;stroke-width:1;"/><path d="M598.37,532.46 C598.37,542.46 651.1923,542.46 651.1923,542.46 C651.1923,542.46 704.0145,542.46 704.0145,532.46" fill="none" style="stroke:#000000;stroke-width:1;"/><text fill="#000000" font-family="Verdana" font-size="10" lengthAdjust="spacing" textLength="76.9434" x="608.37" y="556.5137">&#1047;&#1040;&#1065;&#1048;&#1065;&#1025;&#1053;&#1053;&#1054;&#1045;</text><text fill="#000000" font-family="Verdana" font-size="10" lengthAdjust="spacing" textLength="66.3574" x="608.37" y="568.667">&#1061;&#1056;&#1040;&#1053;&#1048;&#1051;&#1048;&#1065;&#1045;</text><text fill="#000000" font-family="Verdana" font-size="10" lengthAdjust="spacing" textLength="85.6445" x="608.37" y="580.8204">&#1064;&#1080;&#1092;&#1088;.+&#1087;&#1086;&#1076;&#1087;&#1080;&#1089;&#1100;</text><text fill="#000000" font-family="Verdana" font-size="10" lengthAdjust="spacing" textLength="79.6211" x="608.37" y="592.9737">&#9989; &#1047;&#1040;&#1065;&#1048;&#1065;&#1045;&#1053;&#1054;</text></g><!--entity analytics--><g class="entity" data-entity="analytics" data-source-line="23" data-uid="ent0011" id="entity_analytics"><rect fill="#FFFF00" height="56.46" rx="2.5" ry="2.5" style="stroke:#000000;stroke-width:1;" width="107.3994" x="597.49" y="804.38"/><text fill="#000000" font-family="Verdana" font-size="10" lengthAdjust="spacing" textLength="75.5957" x="607.49" y="824.4337">ML/ANALYTICS</text><text fill="#000000" font-family="Verdana" font-size="10" lengthAdjust="spacing" textLength="65.21" x="607.49" y="836.587">&#1055;&#1051;&#1040;&#1058;&#1060;&#1054;&#1056;&#1052;&#1040;</text><text fill="#000000" font-family="Verdana" font-size="10" lengthAdjust="spacing" textLength="87.3994" x="607.49" y="848.7404">&#9989; &#1054;&#1041;&#1045;&#1047;&#1051;&#1048;&#1063;&#1045;&#1053;&#1054;</text></g><g class="entity" data-entity="GMN22" data-source-line="41" data-uid="ent0023" id="entity_GMN22"><path d="M381.66,364.23 L381.66,410.69 L580.7186,410.69 L580.7186,374.23 L570.7186,364.23 L381.66,364.23" fill="#FFFFFF" style="stroke:#000000;stroke-width:1;"/><path d="M570.7186,364.23 L570.7186,374.23 L580.7186,374.23 L570.7186,364.23" fill="#FFFFFF" style="stroke:#000000;stroke-width:1;"/><text fill="#000000" font-family="Verdana" font-size="10" lengthAdjust="spacing" textLength="70.0146" x="387.66" y="379.2837">&#1059;&#1051;&#1059;&#1063;&#1064;&#1045;&#1053;&#1048;&#1071;:</text><text fill="#000000" font-family="Verdana" font-size="10" lengthAdjust="spacing" textLength="178.0586" x="387.66" y="391.437">&#9989; S/MIME &#1096;&#1080;&#1092;&#1088;&#1086;&#1074;&#1072;&#1085;&#1080;&#1077; &#1087;&#1077;&#1088;&#1077;&#1076;&#1072;&#1095;&#1080;</text><text fill="#000000" font-family="Verdana" font-size="10" lengthAdjust="spacing" textLength="177.9463" x="387.66" y="403.5904">&#9989; OAuth 2.0 &#1072;&#1091;&#1090;&#1077;&#1085;&#1090;&#1080;&#1092;&#1080;&#1082;&#1072;&#1094;&#1080;&#1103; API</text></g><g class="entity" data-entity="GMN25" data-source-line="42" data-uid="ent0026" id="entity_GMN25"><path d="M11,376.38 L11,398.5333 A0,0 0 0 0 11,398.5333 L195.3857,398.5333 A0,0 0 0 0 195.3857,398.5333 L195.3857,386.38 L185.3857,376.38 L109.96,376.38 L144.75,232.1 L101.96,376.38 L11,376.38 A0,0 0 0 0 11,376.38" fill="#FFFFFF" style="stroke:#000000;stroke-width:1;"/><path d="M185.3857,376.38 L185.3857,386.38 L195.3857,386.38 L185.3857,376.38" fill="#FFFFFF" style="stroke:#000000;stroke-width:1;"/><text fill="#000000" font-family="Verdana" font-size="10" lengthAdjust="spacing" textLength="163.3857" x="17" y="391.4337">&#9989; HSM &#1076;&#1083;&#1103; &#1082;&#1088;&#1080;&#1090;&#1080;&#1095;&#1085;&#1099;&#1093; &#1082;&#1083;&#1102;&#1095;&#1077;&#1081;</text></g><g class="entity" data-entity="GMN28" data-source-line="43" data-uid="ent0029" id="entity_GMN28"><path d="M193.45,697.15 L193.45,719.3033 A0,0 0 0 0 193.45,719.3033 L382.9383,719.3033 A0,0 0 0 0 382.9383,719.3033 L382.9383,707.15 L372.9383,697.15 L292.19,697.15 L288.19,600.35 L284.19,697.15 L193.45,697.15 A0,0 0 0 0 193.45,697.15" fill="#FFFFFF" style="stroke:#000000;stroke-width:1;"/><path d="M372.9383,697.15 L372.9383,707.15 L382.9383,707.15 L372.9383,697.15" fill="#FFFFFF" style="stroke:#000000;stroke-width:1;"/><text fill="#000000" font-family="Verdana" font-size="10" lengthAdjust="spacing" textLength="168.4883" x="199.45" y="712.2037">&#9989; &#1040;&#1074;&#1090;&#1086;&#1084;&#1072;&#1090;&#1080;&#1095;&#1077;&#1089;&#1082;&#1086;&#1077; &#1090;&#1077;&#1075;&#1080;&#1088;&#1086;&#1074;&#1072;&#1085;&#1080;&#1077;</text></g><g class="entity" data-entity="GMN31" data-source-line="44" data-uid="ent0032" id="entity_GMN31"><path d="M911.9,376.38 L911.9,398.5333 A0,0 0 0 0 911.9,398.5333 L1092.4918,398.5333 A0,0 0 0 0 1092.4918,398.5333 L1092.4918,386.38 L1082.4918,376.38 L986.01,376.38 L692.84,226.05 L978.01,376.38 L911.9,376.38 A0,0 0 0 0 911.9,376.38" fill="#FFFFFF" style="stroke:#000000;stroke-width:1;"/><path d="M1082.4918,376.38 L1082.4918,386.38 L1092.4918,386.38 L1082.4918,376.38" fill="#FFFFFF" style="stroke:#000000;stroke-width:1;"/><text fill="#000000" font-family="Verdana" font-size="10" lengthAdjust="spacing" textLength="159.5918" x="917.9" y="391.4337">&#9989; Data Lineage &#1086;&#1090;&#1089;&#1083;&#1077;&#1078;&#1080;&#1074;&#1072;&#1085;&#1080;&#1077;</text></g><g class="entity" data-entity="GMN34" data-source-line="45" data-uid="ent0035" id="entity_GMN34"><path d="M738.92,550.19 L738.92,572.3433 A0,0 0 0 0 738.92,572.3433 L901.46,572.3433 A0,0 0 0 0 901.46,572.3433 L901.46,560.19 L891.46,550.19 L824.19,550.19 L820.19,409.87 L816.19,550.19 L738.92,550.19 A0,0 0 0 0 738.92,550.19" fill="#FFFFFF" style="stroke:#000000;stroke-width:1;"/><path d="M891.46,550.19 L891.46,560.19 L901.46,560.19 L891.46,550.19" fill="#FFFFFF" style="stroke:#000000;stroke-width:1;"/><text fill="#000000" font-family="Verdana" font-size="10" lengthAdjust="spacing" textLength="141.54" x="744.92" y="565.2437">&#9989; &#1056;&#1077;&#1079;&#1077;&#1088;&#1074;&#1085;&#1086;&#1077; &#1082;&#1086;&#1087;&#1080;&#1088;&#1086;&#1074;&#1072;&#1085;&#1080;&#1077;</text></g><g class="entity" data-entity="GMN37" data-source-line="46" data-uid="ent0038" id="entity_GMN37"><path d="M551.89,921.84 L551.89,943.9933 A0,0 0 0 0 551.89,943.9933 L750.4896,943.9933 A0,0 0 0 0 750.4896,943.9933 L750.4896,931.84 L740.4896,921.84 L655.19,921.84 L651.19,861.25 L647.19,921.84 L551.89,921.84 A0,0 0 0 0 551.89,921.84" fill="#FFFFFF" style="stroke:#000000;stroke-width:1;"/><path d="M740.4896,921.84 L740.4896,931.84 L750.4896,931.84 L740.4896,921.84" fill="#FFFFFF" style="stroke:#000000;stroke-width:1;"/><text fill="#000000" font-family="Verdana" font-size="10" lengthAdjust="spacing" textLength="177.5996" x="557.89" y="936.8937">&#9989; &#1054;&#1073;&#1077;&#1079;&#1083;&#1080;&#1095;&#1080;&#1074;&#1072;&#1085;&#1080;&#1077; &#1076;&#1083;&#1103; &#1072;&#1085;&#1072;&#1083;&#1080;&#1090;&#1080;&#1082;&#1080;</text></g><!--link lab to secure_mail--><g class="link" data-entity-1="lab" data-entity-2="secure_mail" data-source-line="26" data-uid="lnk12" id="link_lab_secure_mail"><path d="M311.19,68.94 C311.19,106.76 311.19,166.38 311.19,188.74" fill="none" id="lab-to-secure_mail" style="stroke:#000000;stroke-width:1;"/><polygon fill="#000000" points="311.19,194.74,315.19,185.74,311.19,189.74,307.19,185.74,311.19,194.74" style="stroke:#000000;stroke-width:1;"/><text fill="#000000" font-family="Verdana" font-size="10" lengthAdjust="spacing" textLength="38.7646" x="326.084" y="109.5137">S/MIME</text><text fill="#000000" font-family="Verdana" font-size="10" lengthAdjust="spacing" textLength="66.5527" x="312.19" y="121.667">&#1096;&#1080;&#1092;&#1088;&#1086;&#1074;&#1072;&#1085;&#1080;&#1077;</text></g><!--link secure_mail to gateway--><g class="link" data-entity-1="secure_mail" data-entity-2="gateway" data-source-line="27" data-uid="lnk13" id="link_secure_mail_gateway"><path d="M308.47,212.08 C303.69,225.89 293.94,256.08 290.19,282.46 C285.14,318.04 286.4002,355.1491 287.3602,372.5891" fill="none" id="secure_mail-to-gateway" style="stroke:#000000;stroke-width:1;"/><polygon fill="#000000" points="287.69,378.58,291.1893,369.3738,287.4152,373.5876,283.2014,369.8135,287.69,378.58" style="stroke:#000000;stroke-width:1;"/><text fill="#000000" font-family="Verdana" font-size="10" lengthAdjust="spacing" textLength="25.9326" x="303.8096" y="293.5137">API &#1089;</text><text fill="#000000" font-family="Verdana" font-size="10" lengthAdjust="spacing" textLength="51.1719" x="291.19" y="305.667">OAuth 2.0</text></g><!--link hsm to gateway--><g class="link" data-entity-1="hsm" data-entity-2="gateway" data-source-line="28" data-uid="lnk14" id="link_hsm_gateway"><path d="M166.43,232.01 C178.1,253.61 195.66,283.99 214.19,308.46 C235.38,336.43 260.9649,361.2955 275.3949,374.7055" fill="none" id="hsm-to-gateway" style="stroke:#000000;stroke-width:1;"/><polygon fill="#000000" points="279.79,378.79,275.9203,369.7332,276.1274,375.3863,270.4743,375.5934,279.79,378.79" style="stroke:#000000;stroke-width:1;"/><text fill="#000000" font-family="Verdana" font-size="10" lengthAdjust="spacing" textLength="63.0566" x="215.19" y="293.5137">&#1040;&#1087;&#1087;&#1072;&#1088;&#1072;&#1090;&#1085;&#1099;&#1077;</text><text fill="#000000" font-family="Verdana" font-size="10" lengthAdjust="spacing" textLength="32.9688" x="230.2339" y="305.667">&#1082;&#1083;&#1102;&#1095;&#1080;</text></g><!--link gateway to tagging--><g class="link" data-entity-1="gateway" data-entity-2="tagging" data-source-line="30" data-uid="lnk15" id="link_gateway_tagging"><path d="M288.19,396.29 C288.19,418.15 288.19,474.93 288.19,516.17" fill="none" id="gateway-to-tagging" style="stroke:#000000;stroke-width:1;"/><polygon fill="#000000" points="288.19,522.17,292.19,513.17,288.19,517.17,284.19,513.17,288.19,522.17" style="stroke:#000000;stroke-width:1;"/><text fill="#000000" font-family="Verdana" font-size="10" lengthAdjust="spacing" textLength="93.3691" x="289.19" y="477.5137">&#1040;&#1074;&#1090;&#1086;&#1090;&#1077;&#1075;&#1080;&#1088;&#1086;&#1074;&#1072;&#1085;&#1080;&#1077;:</text><text fill="#000000" font-family="Verdana" font-size="10" lengthAdjust="spacing" textLength="56.4307" x="307.6592" y="489.667">PHI_TESTS</text></g><!--link gateway to secure_storage--><g class="link" data-entity-1="gateway" data-entity-2="secure_storage" data-source-line="31" data-uid="lnk16" id="link_gateway_secure_storage"><path d="M296.82,394.53 C310.64,404.13 338.79,423.06 364.19,436.46 C443.27,478.16 533.8369,515.2881 592.3469,538.0081" fill="none" id="gateway-to-secure_storage" style="stroke:#000000;stroke-width:1;"/><polygon fill="#000000" points="597.94,540.18,590.9982,533.1935,593.2791,538.3701,588.1024,540.651,597.94,540.18" style="stroke:#000000;stroke-width:1;"/><text fill="#000000" font-family="Verdana" font-size="10" lengthAdjust="spacing" textLength="79.7949" x="481.37" y="477.5137">&#1064;&#1080;&#1092;&#1088;&#1086;&#1074;&#1072;&#1085;&#1080;&#1077; +</text><text fill="#000000" font-family="Verdana" font-size="10" lengthAdjust="spacing" textLength="42.4805" x="500.0272" y="489.667">&#1087;&#1086;&#1076;&#1087;&#1080;&#1089;&#1100;</text></g><!--link lineage to gateway--><g class="link" data-entity-1="lineage" data-entity-2="gateway" data-source-line="33" data-uid="lnk17" id="link_lineage_gateway"><path d="M599.95,226.04 C541.78,251.08 444.54,294.56 364.19,338.46 C338.99,352.22 315.7174,367.6201 301.8274,377.0901" fill="none" id="lineage-to-gateway" style="stroke:#000000;stroke-width:1;"/><polygon fill="#000000" points="296.87,380.47,306.5594,378.7051,301.0012,377.6534,302.0529,372.0952,296.87,380.47" style="stroke:#000000;stroke-width:1;"/><text fill="#000000" font-family="Verdana" font-size="10" lengthAdjust="spacing" textLength="65.6543" x="473.89" y="299.5137">&#1058;&#1088;&#1072;&#1089;&#1089;&#1080;&#1088;&#1086;&#1074;&#1082;&#1072;</text></g><!--link lineage to secure_storage--><g class="link" data-entity-1="lineage" data-entity-2="secure_storage" data-source-line="34" data-uid="lnk18" id="link_lineage_secure_storage"><path d="M651.19,225.91 C651.19,284.43 651.19,441.41 651.19,516.05" fill="none" id="lineage-to-secure_storage" style="stroke:#000000;stroke-width:1;"/><polygon fill="#000000" points="651.19,522.05,655.19,513.05,651.19,517.05,647.19,513.05,651.19,522.05" style="stroke:#000000;stroke-width:1;"/><text fill="#000000" font-family="Verdana" font-size="10" lengthAdjust="spacing" textLength="75.4004" x="652.19" y="391.5137">&#1054;&#1090;&#1089;&#1083;&#1077;&#1078;&#1080;&#1074;&#1072;&#1085;&#1080;&#1077;</text></g><!--link backup to secure_storage--><g class="link" data-entity-1="backup" data-entity-2="secure_storage" data-source-line="35" data-uid="lnk19" id="link_backup_secure_storage"><path d="M798.93,409.96 C783.46,425.61 762.01,447.33 743.19,466.46 C725.11,484.83 709.2698,500.9749 692.5198,518.0649" fill="none" id="backup-to-secure_storage" style="stroke:#000000;stroke-width:1;"/><polygon fill="#000000" points="688.32,522.35,697.4764,518.7223,691.8198,518.7791,691.763,513.1226,688.32,522.35" style="stroke:#000000;stroke-width:1;"/><text fill="#000000" font-family="Verdana" font-size="10" lengthAdjust="spacing" textLength="53.7646" x="751.1797" y="477.5137">&#1056;&#1077;&#1079;&#1077;&#1088;&#1074;&#1085;&#1086;&#1077;</text><text fill="#000000" font-family="Verdana" font-size="10" lengthAdjust="spacing" textLength="67.7441" x="744.19" y="489.667">&#1082;&#1086;&#1087;&#1080;&#1088;&#1086;&#1074;&#1072;&#1085;&#1080;&#1077;</text></g><!--link secure_storage to doctor--><g class="link" data-entity-1="secure_storage" data-entity-2="doctor" data-source-line="37" data-uid="lnk20" id="link_secure_storage_doctor"><path d="M651.19,600.35 C651.19,627.53 651.19,657.11 651.19,679.57" fill="none" id="secure_storage-to-doctor" style="stroke:#000000;stroke-width:1;"/><polygon fill="#000000" points="651.19,685.57,655.19,676.57,651.19,680.57,647.19,676.57,651.19,685.57" style="stroke:#000000;stroke-width:1;"/><text fill="#000000" font-family="Verdana" font-size="10" lengthAdjust="spacing" textLength="32.168" x="669.8511" y="641.1237">RBAC:</text><text fill="#000000" font-family="Verdana" font-size="10" lengthAdjust="spacing" textLength="67.4902" x="652.19" y="653.277">Medical_Staff</text></g><!--link doctor to analytics--><g class="link" data-entity-1="doctor" data-entity-2="analytics" data-source-line="38" data-uid="lnk21" id="link_doctor_analytics"><path d="M651.19,730.82 C651.19,751.27 651.19,776.06 651.19,798.22" fill="none" id="doctor-to-analytics" style="stroke:#000000;stroke-width:1;"/><polygon fill="#000000" points="651.19,804.22,655.19,795.22,651.19,799.22,647.19,795.22,651.19,804.22" style="stroke:#000000;stroke-width:1;"/><text fill="#000000" font-family="Verdana" font-size="10" lengthAdjust="spacing" textLength="80.9619" x="652.19" y="771.4337">&#1054;&#1073;&#1077;&#1079;&#1083;&#1080;&#1095;&#1080;&#1074;&#1072;&#1085;&#1080;&#1077;</text></g><!--link secure_mail to GMN22--><g class="link" data-entity-1="secure_mail" data-entity-2="GMN22" data-source-line="41" data-uid="lnk24" id="link_secure_mail_GMN22"><path d="M319.88,206.31 C345.66,212.28 422.25,233.56 459.19,282.46 C477.11,306.16 481.19,341.19 481.75,363.91" fill="none" id="secure_mail-GMN22" style="stroke:#000000;stroke-width:1;stroke-dasharray:7.0,7.0;"/></g><!--SRC=[VLLTRnjL47tVNt7PF02g-W6FUK0oQQ0MSObmUAWKARgsR-nLrxkHlLOKdfga9LH5uAOoTUl6IGF5gIfH4xhK94tw5sR_0h-4SsVNzkx6HfQzzlhEcJDdpin-u5LKLOarMrgEKRzjEMko9gkY88ktopMtuPJcNDkjYVMAvQdO_oMrAXkszuNhU7dhEoK-kMOO7mhQfJFoWn_mEI1V19l1Td0VFyxnROi6HaqLFUcKRILC7DsZ5XtXypMzNdQeGqrwI5qwmFMGhsrz_zzdzmJjuzu1xkxH9XsOGjQ5BGjYnhRA5QzSKyhXvFl17MJw7WGsyNeWFgAtr4V-GN0_U0WMPy43yZysYbQjo0mU0_Kbihm4wXvUJUQnZzmzv6g6kVDNSzdSFEUigsAZfbQgqh8JkKU0RO0SegX7NCJl-Drbu5Vq1C17AF4FUXoLb4ZEy6NfgNMvaO1E2gPHUr5ybvvoLCajUkXFMeldg5fhxjCxA45_uijREgVt46HpSaDkv7E2dZB77hMZB4t84OhVPFb3YORS8H9pgDIhqrXVponbn4Bsvdpco_aHyqFGwq2dNu2n2wmzN5jXMor7oRAAq0fsGyN1Fi_CVVNjeYwkZRTM-jcmJM3O0gyMhhlqYh6qXHjhOiQj8LonAY_Wa3wRyrIxWlhJF5AIdYp8kfOzbIngS1k9kYFo46NnHdPbQJw_bB_GtnQET9cH9yjbooadj8fbIlknIotaUy7YwooT48wjD0Zk1dUkN493p-aDFdMtV_oVr95tw_3AMD-nNPeelS-Ym1LqGlsuxBc5gvcRcOLRIzcvF0z8Xztm6m_fk0DTZA_kWQRPYwMMZhGtFAjO5pCRohRTzN1OuS4ja3-XWK05_L3xu9wX9_lovSyIqpOhp70Ebnqi5wuTeSTHBttJY1_MmSDPGc1cCOj5jEnydMbu5V7fbMkceVsQEeMAtlDqm23WnJP0hITq6lmKxD30D8pXQHqvx6GOUQmhuM7x2-GIr6PZpZ0J4AcEQAIZYwM9Is2HQ3AO3ASaNSCXiyVo6x509yt4yGbPky4M8ax1_czaZ8aQ3T2Ki0DUAJuI7Uk54ibrpZHJtJ5IuHensbj0-WPZ3PbogcGLfRsIz-Jggcb4_-kZOmCntMYPQRFk90bhN_sAZcq7Ex29hsy7FqzVVexhAL5mFS-j2dSrPJW0TV3keIcjSCPdumy4CSc70Ycq8Busj2ONHeoS9t1tctrofWa4TyDPmoDByuHHqvIqKMU5nk3j_0QrePuJfE11HGgU6J7ogK__f376LeqsEhkLth7FDGGUbzmuFAydMZWDEBHJ27WT-qiiHBVq54poKXeYSbP4wOAJn6GZfL7YleWsq1HhZAJhf_RSmFWF]--></g></svg>