<svg xmlns="http://www.w3.org/2000/svg" xmlns:xlink="http://www.w3.org/1999/xlink" contentStyleType="text/css" data-diagram-type="DESCRIPTION" height="886px" preserveAspectRatio="none" style="width:850px;height:886px;background:#FFFFFF;" version="1.1" viewBox="0 0 850 886" width="850px" zoomAndPan="magnify"><defs/><g><!--entity patient--><g class="entity" data-entity="patient" data-source-line="6" data-uid="ent0002" id="entity_patient"><rect fill="#90EE90" height="56.46" rx="2.5" ry="2.5" style="stroke:#000000;stroke-width:1;" width="99.6211" x="495.3" y="12"/><text fill="#000000" font-family="Verdana" font-size="10" lengthAdjust="spacing" textLength="49.4678" x="505.3" y="32.0537">&#1055;&#1040;&#1062;&#1048;&#1045;&#1053;&#1058;</text><text fill="#000000" font-family="Verdana" font-size="10" lengthAdjust="spacing" textLength="77.8613" x="505.3" y="44.207">+ &#1057;&#1086;&#1075;&#1083;&#1072;&#1089;&#1080;&#1077; &#1055;&#1044;</text><text fill="#000000" font-family="Verdana" font-size="10" lengthAdjust="spacing" textLength="79.6211" x="505.3" y="56.3604">&#9989; &#1047;&#1040;&#1065;&#1048;&#1065;&#1045;&#1053;&#1054;</text></g><!--entity reception--><g class="entity" data-entity="reception" data-source-line="9" data-uid="ent0003" id="entity_reception"><ellipse cx="545.11" cy="203.46" fill="#90EE90" rx="8" ry="8" style="stroke:#000000;stroke-width:1;"/><text fill="#000000" font-family="Verdana" font-size="10" lengthAdjust="spacing" textLength="57.3145" x="516.4528" y="230.5137">&#1056;&#1045;&#1057;&#1045;&#1055;&#1064;&#1045;&#1053;</text><text fill="#000000" font-family="Verdana" font-size="10" lengthAdjust="spacing" textLength="32.71" x="516.4528" y="242.667">+ MFA</text><text fill="#000000" font-family="Verdana" font-size="10" lengthAdjust="spacing" textLength="31.3154" x="516.4528" y="254.8204">&#9989; &#1054;&#1050;</text></g><!--entity create_record--><g class="entity" data-entity="create_record" data-source-line="10" data-uid="ent0004" id="entity_create_record"><ellipse cx="284.11" cy="669.23" fill="#90EE90" rx="8" ry="8" style="stroke:#000000;stroke-width:1;"/><text fill="#000000" font-family="Verdana" font-size="10" lengthAdjust="spacing" textLength="56.6455" x="255.4259" y="696.2837">&#1057;&#1054;&#1047;&#1044;&#1040;&#1053;&#1048;&#1045;</text><text fill="#000000" font-family="Verdana" font-size="10" lengthAdjust="spacing" textLength="57.3682" x="255.4259" y="708.437">&#1052;&#1045;&#1044;&#1050;&#1040;&#1056;&#1058;&#1067;</text><text fill="#000000" font-family="Verdana" font-size="10" lengthAdjust="spacing" textLength="31.3154" x="255.4259" y="720.5904">&#9989; &#1054;&#1050;</text></g><!--entity doctor--><g class="entity" data-entity="doctor" data-source-line="11" data-uid="ent0005" id="entity_doctor"><rect fill="#90EE90" height="44.3066" rx="2.5" ry="2.5" style="stroke:#000000;stroke-width:1;" width="83.0664" x="240.57" y="489.92"/><text fill="#000000" font-family="Verdana" font-size="10" lengthAdjust="spacing" textLength="63.0664" x="250.57" y="509.9737">&#1042;&#1056;&#1040;&#1063; + MFA</text><text fill="#000000" font-family="Verdana" font-size="10" lengthAdjust="spacing" textLength="31.3154" x="250.57" y="522.127">&#9989; &#1054;&#1050;</text></g><!--entity dlp--><g class="entity" data-entity="dlp" data-source-line="14" data-uid="ent0006" id="entity_dlp"><rect fill="#FFA500" height="44.3066" rx="2.5" ry="2.5" style="stroke:#000000;stroke-width:1;" width="92.0361" x="335.09" y="18.08"/><text fill="#000000" font-family="Verdana" font-size="10" lengthAdjust="spacing" textLength="72.0361" x="345.09" y="38.1337">DLP &#1057;&#1048;&#1057;&#1058;&#1045;&#1052;&#1040;</text><text fill="#000000" font-family="Verdana" font-size="10" lengthAdjust="spacing" textLength="60.4609" x="345.09" y="50.287">&#9989; &#1047;&#1040;&#1065;&#1048;&#1058;&#1040;</text></g><!--entity siem--><g class="entity" data-entity="siem" data-source-line="15" data-uid="ent0007" id="entity_siem"><rect fill="#FFA500" height="44.3066" rx="2.5" ry="2.5" style="stroke:#000000;stroke-width:1;" width="121.377" x="131.42" y="181.31"/><text fill="#000000" font-family="Verdana" font-size="10" lengthAdjust="spacing" textLength="101.377" x="141.42" y="201.3637">SIEM &#1052;&#1054;&#1053;&#1048;&#1058;&#1054;&#1056;&#1048;&#1053;&#1043;</text><text fill="#000000" font-family="Verdana" font-size="10" lengthAdjust="spacing" textLength="73.0439" x="141.42" y="213.517">&#9989; &#1050;&#1054;&#1053;&#1058;&#1056;&#1054;&#1051;&#1068;</text></g><!--entity secure_db--><g class="entity" data-entity="secure_db" data-source-line="18" data-uid="ent0008" id="entity_secure_db"><path d="M226.87,348.46 C226.87,338.46 284.1063,338.46 284.1063,338.46 C284.1063,338.46 341.3427,338.46 341.3427,348.46 L341.3427,393.92 C341.3427,403.92 284.1063,403.92 284.1063,403.92 C284.1063,403.92 226.87,403.92 226.87,393.92 L226.87,348.46" fill="#90EE90" style="stroke:#000000;stroke-width:1;"/><path d="M226.87,348.46 C226.87,358.46 284.1063,358.46 284.1063,358.46 C284.1063,358.46 341.3427,358.46 341.3427,348.46" fill="none" style="stroke:#000000;stroke-width:1;"/><text fill="#000000" font-family="Verdana" font-size="10" lengthAdjust="spacing" textLength="94.4727" x="236.87" y="372.5137">&#1047;&#1040;&#1065;&#1048;&#1065;&#1025;&#1053;&#1053;&#1040;&#1071; &#1041;&#1044;</text><text fill="#000000" font-family="Verdana" font-size="10" lengthAdjust="spacing" textLength="43.6084" x="236.87" y="384.667">AES-256</text><text fill="#000000" font-family="Verdana" font-size="10" lengthAdjust="spacing" textLength="79.6211" x="236.87" y="396.8204">&#9989; &#1047;&#1040;&#1065;&#1048;&#1065;&#1045;&#1053;&#1054;</text></g><!--entity tagging--><g class="entity" data-entity="tagging" data-source-line="19" data-uid="ent0009" id="entity_tagging"><path d="M674.08,348.46 C674.08,338.46 748.1108,338.46 748.1108,338.46 C748.1108,338.46 822.1415,338.46 822.1415,348.46 L822.1415,393.92 C822.1415,403.92 748.1108,403.92 748.1108,403.92 C748.1108,403.92 674.08,403.92 674.08,393.92 L674.08,348.46" fill="#90EE90" style="stroke:#000000;stroke-width:1;"/><path d="M674.08,348.46 C674.08,358.46 748.1108,358.46 748.1108,358.46 C748.1108,358.46 822.1415,358.46 822.1415,348.46" fill="none" style="stroke:#000000;stroke-width:1;"/><text fill="#000000" font-family="Verdana" font-size="10" lengthAdjust="spacing" textLength="128.0615" x="684.08" y="372.5137">&#1057;&#1048;&#1057;&#1058;&#1045;&#1052;&#1040; &#1058;&#1045;&#1043;&#1048;&#1056;&#1054;&#1042;&#1040;&#1053;&#1048;&#1071;</text><text fill="#000000" font-family="Verdana" font-size="10" lengthAdjust="spacing" textLength="52.5244" x="684.08" y="384.667">PII_BASIC</text><text fill="#000000" font-family="Verdana" font-size="10" lengthAdjust="spacing" textLength="79.6211" x="684.08" y="396.8204">&#9989; &#1047;&#1040;&#1065;&#1048;&#1065;&#1045;&#1053;&#1054;</text></g><!--entity secure_storage--><g class="entity" data-entity="secure_storage" data-source-line="20" data-uid="ent0010" id="entity_secure_storage"><path d="M255.7,814.23 C255.7,804.23 339.1082,804.23 339.1082,804.23 C339.1082,804.23 422.5164,804.23 422.5164,814.23 L422.5164,859.69 C422.5164,869.69 339.1082,869.69 339.1082,869.69 C339.1082,869.69 255.7,869.69 255.7,859.69 L255.7,814.23" fill="#90EE90" style="stroke:#000000;stroke-width:1;"/><path d="M255.7,814.23 C255.7,824.23 339.1082,824.23 339.1082,824.23 C339.1082,824.23 422.5164,824.23 422.5164,814.23" fill="none" style="stroke:#000000;stroke-width:1;"/><text fill="#000000" font-family="Verdana" font-size="10" lengthAdjust="spacing" textLength="146.8164" x="265.7" y="838.2837">&#1047;&#1040;&#1065;&#1048;&#1065;&#1025;&#1053;&#1053;&#1054;&#1045; &#1061;&#1056;&#1040;&#1053;&#1048;&#1051;&#1048;&#1065;&#1045;</text><text fill="#000000" font-family="Verdana" font-size="10" lengthAdjust="spacing" textLength="94.4336" x="265.7" y="850.437">+ &#1040;&#1091;&#1076;&#1080;&#1090; + &#1042;&#1077;&#1088;&#1089;&#1080;&#1080;</text><text fill="#000000" font-family="Verdana" font-size="10" lengthAdjust="spacing" textLength="79.6211" x="265.7" y="862.5904">&#9989; &#1047;&#1040;&#1065;&#1048;&#1065;&#1045;&#1053;&#1054;</text></g><g class="entity" data-entity="GMN21" data-source-line="38" data-uid="ent0022" id="entity_GMN21"><path d="M451.23,347.96 L451.23,394.42 A0,0 0 0 0 451.23,394.42 L638.9898,394.42 A0,0 0 0 0 638.9898,394.42 L638.9898,357.96 L628.9898,347.96 L549.11,347.96 L545.11,212.46 L541.11,347.96 L451.23,347.96 A0,0 0 0 0 451.23,347.96" fill="#FFFFFF" style="stroke:#000000;stroke-width:1;"/><path d="M628.9898,347.96 L628.9898,357.96 L638.9898,357.96 L628.9898,347.96" fill="#FFFFFF" style="stroke:#000000;stroke-width:1;"/><text fill="#000000" font-family="Verdana" font-size="10" lengthAdjust="spacing" textLength="70.0146" x="457.23" y="363.0137">&#1059;&#1051;&#1059;&#1063;&#1064;&#1045;&#1053;&#1048;&#1071;:</text><text fill="#000000" font-family="Verdana" font-size="10" lengthAdjust="spacing" textLength="166.7598" x="457.23" y="375.167">&#9989; MFA &#1076;&#1083;&#1103; &#1074;&#1089;&#1077;&#1093; &#1087;&#1086;&#1083;&#1100;&#1079;&#1086;&#1074;&#1072;&#1090;&#1077;&#1083;&#1077;&#1081;</text><text fill="#000000" font-family="Verdana" font-size="10" lengthAdjust="spacing" textLength="131.7354" x="457.23" y="387.3204">&#9989; &#1064;&#1080;&#1092;&#1088;&#1086;&#1074;&#1072;&#1085;&#1080;&#1077; AES-256</text></g><g class="entity" data-entity="GMN24" data-source-line="39" data-uid="ent0025" id="entity_GMN24"><path d="M652.59,501 L652.59,523.1533 A0,0 0 0 0 652.59,523.1533 L843.631,523.1533 A0,0 0 0 0 843.631,523.1533 L843.631,511 L833.631,501 L752.11,501 L748.11,404.41 L744.11,501 L652.59,501 A0,0 0 0 0 652.59,501" fill="#FFFFFF" style="stroke:#000000;stroke-width:1;"/><path d="M833.631,501 L833.631,511 L843.631,511 L833.631,501" fill="#FFFFFF" style="stroke:#000000;stroke-width:1;"/><text fill="#000000" font-family="Verdana" font-size="10" lengthAdjust="spacing" textLength="170.041" x="658.59" y="516.0537">&#9989; &#1057;&#1080;&#1089;&#1090;&#1077;&#1084;&#1072; &#1090;&#1077;&#1075;&#1080;&#1088;&#1086;&#1074;&#1072;&#1085;&#1080;&#1103; &#1076;&#1072;&#1085;&#1085;&#1099;&#1093;</text></g><g class="entity" data-entity="GMN27" data-source-line="40" data-uid="ent0028" id="entity_GMN27"><path d="M288.02,192.39 L288.02,214.5433 A0,0 0 0 0 288.02,214.5433 L474.188,214.5433 A0,0 0 0 0 474.188,214.5433 L474.188,202.39 L464.188,192.39 L385.11,192.39 L381.11,62.64 L377.11,192.39 L288.02,192.39 A0,0 0 0 0 288.02,192.39" fill="#FFFFFF" style="stroke:#000000;stroke-width:1;"/><path d="M464.188,192.39 L464.188,202.39 L474.188,202.39 L464.188,192.39" fill="#FFFFFF" style="stroke:#000000;stroke-width:1;"/><text fill="#000000" font-family="Verdana" font-size="10" lengthAdjust="spacing" textLength="165.168" x="294.02" y="207.4437">&#9989; DLP &#1087;&#1088;&#1077;&#1076;&#1086;&#1090;&#1074;&#1088;&#1072;&#1097;&#1077;&#1085;&#1080;&#1077; &#1091;&#1090;&#1077;&#1095;&#1077;&#1082;</text></g><g class="entity" data-entity="GMN30" data-source-line="41" data-uid="ent0031" id="entity_GMN30"><path d="M44.14,354.04 L44.14,388.3466 A0,0 0 0 0 44.14,388.3466 L192.0658,388.3466 A0,0 0 0 0 192.0658,388.3466 L192.0658,364.04 L182.0658,354.04 L129.37,354.04 L182.58,225.79 L121.37,354.04 L44.14,354.04 A0,0 0 0 0 44.14,354.04" fill="#FFFFFF" style="stroke:#000000;stroke-width:1;"/><path d="M182.0658,354.04 L182.0658,364.04 L192.0658,364.04 L182.0658,354.04" fill="#FFFFFF" style="stroke:#000000;stroke-width:1;"/><text fill="#000000" font-family="Verdana" font-size="10" lengthAdjust="spacing" textLength="106.3789" x="50.14" y="369.0937">&#9989; SIEM &#1084;&#1086;&#1085;&#1080;&#1090;&#1086;&#1088;&#1080;&#1085;&#1075;</text><text fill="#000000" font-family="Verdana" font-size="10" lengthAdjust="spacing" textLength="126.9258" x="50.14" y="381.247">&#9989; &#1040;&#1091;&#1076;&#1080;&#1090; &#1074;&#1089;&#1077;&#1093; &#1086;&#1087;&#1077;&#1088;&#1072;&#1094;&#1080;&#1081;</text></g><!--link patient to reception--><g class="link" data-entity-1="patient" data-entity-2="reception" data-source-line="23" data-uid="lnk11" id="link_patient_reception"><path d="M545.11,68.95 C545.11,106.76 545.11,166.38 545.11,188.74" fill="none" id="patient-to-reception" style="stroke:#000000;stroke-width:1;"/><polygon fill="#000000" points="545.11,194.74,549.11,185.74,545.11,189.74,541.11,185.74,545.11,194.74" style="stroke:#000000;stroke-width:1;"/><text fill="#000000" font-family="Verdana" font-size="10" lengthAdjust="spacing" textLength="63.5693" x="550.297" y="109.5137">&#1057;&#1086;&#1075;&#1083;&#1072;&#1089;&#1080;&#1077; &#1085;&#1072;</text><text fill="#000000" font-family="Verdana" font-size="10" lengthAdjust="spacing" textLength="71.9434" x="546.11" y="121.667">&#1086;&#1073;&#1088;&#1072;&#1073;&#1086;&#1090;&#1082;&#1091; &#1055;&#1044;</text></g><!--link dlp to reception--><g class="link" data-entity-1="dlp" data-entity-2="reception" data-source-line="24" data-uid="lnk12" id="link_dlp_reception"><path d="M402.88,62.64 C439.83,98.96 508.8411,166.8139 532.9411,190.5039" fill="none" id="dlp-to-reception" style="stroke:#000000;stroke-width:1;"/><polygon fill="#000000" points="537.22,194.71,533.6057,185.5483,533.6543,191.2049,527.9976,191.2535,537.22,194.71" style="stroke:#000000;stroke-width:1;"/><text fill="#000000" font-family="Verdana" font-size="10" lengthAdjust="spacing" textLength="48.5449" x="464.11" y="109.5137">&#1050;&#1086;&#1085;&#1090;&#1088;&#1086;&#1083;&#1100;</text><text fill="#000000" font-family="Verdana" font-size="10" lengthAdjust="spacing" textLength="34.7656" x="470.9996" y="121.667">&#1091;&#1090;&#1077;&#1095;&#1077;&#1082;</text></g><!--link dlp to doctor--><g class="link" data-entity-1="dlp" data-entity-2="doctor" data-source-line="25" data-uid="lnk13" id="link_dlp_doctor"><path d="M334.67,50.26 C276.49,63.72 176.85,94.22 114.11,154.46 C48.86,217.12 46.92,250.2 27.11,338.46 C20.73,366.85 11,379.69 27.11,403.92 C74.81,475.72 175.0416,498.7251 234.2316,506.5351" fill="none" id="dlp-to-doctor" style="stroke:#000000;stroke-width:1;"/><polygon fill="#000000" points="240.18,507.32,231.7806,502.177,235.223,506.6659,230.7341,510.1083,240.18,507.32" style="stroke:#000000;stroke-width:1;"/><text fill="#000000" font-family="Verdana" font-size="10" lengthAdjust="spacing" textLength="48.5449" x="40.33" y="293.5137">&#1050;&#1086;&#1085;&#1090;&#1088;&#1086;&#1083;&#1100;</text><text fill="#000000" font-family="Verdana" font-size="10" lengthAdjust="spacing" textLength="34.7656" x="47.2196" y="305.667">&#1091;&#1090;&#1077;&#1095;&#1077;&#1082;</text></g><!--link reception to secure_db--><g class="link" data-entity-1="reception" data-entity-2="secure_db" data-source-line="27" data-uid="lnk14" id="link_reception_secure_db"><path d="M537.67,212.19 C527.81,222.19 509.62,239.82 492.11,252.46 C444,287.2 390.0767,317.1277 347.1267,339.1977" fill="none" id="reception-to-secure_db" style="stroke:#000000;stroke-width:1;"/><polygon fill="#000000" points="341.79,341.94,351.6232,341.3844,346.2372,339.6548,347.9668,334.2688,341.79,341.94" style="stroke:#000000;stroke-width:1;"/><text fill="#000000" font-family="Verdana" font-size="10" lengthAdjust="spacing" textLength="68.0957" x="444.05" y="293.5137">&#1064;&#1080;&#1092;&#1088;&#1086;&#1074;&#1072;&#1085;&#1080;&#1077;</text><text fill="#000000" font-family="Verdana" font-size="10" lengthAdjust="spacing" textLength="43.6084" x="456.2937" y="305.667">AES-256</text></g><!--link reception to tagging--><g class="link" data-entity-1="reception" data-entity-2="tagging" data-source-line="28" data-uid="lnk15" id="link_reception_tagging"><path d="M554.09,211.8 C580.72,233.54 655.7225,294.7651 704.2925,334.4251" fill="none" id="reception-to-tagging" style="stroke:#000000;stroke-width:1;"/><polygon fill="#000000" points="708.94,338.22,704.4988,329.4294,705.0671,335.0576,699.4389,335.626,708.94,338.22" style="stroke:#000000;stroke-width:1;"/><text fill="#000000" font-family="Verdana" font-size="10" lengthAdjust="spacing" textLength="70.7568" x="671.76" y="293.5137">&#1058;&#1077;&#1075;&#1080;&#1088;&#1086;&#1074;&#1072;&#1085;&#1080;&#1077;:</text><text fill="#000000" font-family="Verdana" font-size="10" lengthAdjust="spacing" textLength="52.5244" x="680.8762" y="305.667">PII_BASIC</text></g><!--link secure_db to doctor--><g class="link" data-entity-1="secure_db" data-entity-2="doctor" data-source-line="30" data-uid="lnk16" id="link_secure_db_doctor"><path d="M283.64,404.41 C283.26,430.69 282.827,461.0706 282.497,483.8306" fill="none" id="secure_db-to-doctor" style="stroke:#000000;stroke-width:1;"/><polygon fill="#000000" points="282.41,489.83,286.5401,480.8889,282.4825,484.8305,278.5409,480.773,282.41,489.83" style="stroke:#000000;stroke-width:1;"/><text fill="#000000" font-family="Verdana" font-size="10" lengthAdjust="spacing" textLength="32.168" x="299.3263" y="444.9737">RBAC:</text><text fill="#000000" font-family="Verdana" font-size="10" lengthAdjust="spacing" textLength="62.4805" x="284.17" y="457.127">Doctor_Only</text></g><!--link doctor to create_record--><g class="link" data-entity-1="doctor" data-entity-2="create_record" data-source-line="31" data-uid="lnk17" id="link_doctor_create_record"><path d="M282.38,534.65 C282.84,569.79 283.6311,631.7505 283.9311,654.5605" fill="none" id="doctor-to-create_record" style="stroke:#000000;stroke-width:1;"/><polygon fill="#000000" points="284.01,660.56,287.8913,651.5082,283.9442,655.5604,279.892,651.6134,284.01,660.56" style="stroke:#000000;stroke-width:1;"/><text fill="#000000" font-family="Verdana" font-size="10" lengthAdjust="spacing" textLength="52.6709" x="284.05" y="575.2837">&#1062;&#1080;&#1092;&#1088;&#1086;&#1074;&#1072;&#1103;</text><text fill="#000000" font-family="Verdana" font-size="10" lengthAdjust="spacing" textLength="42.4805" x="289.1452" y="587.437">&#1087;&#1086;&#1076;&#1087;&#1080;&#1089;&#1100;</text></g><!--link create_record to secure_storage--><g class="link" data-entity-1="create_record" data-entity-2="secure_storage" data-source-line="32" data-uid="lnk18" id="link_create_record_secure_storage"><path d="M281.97,678.15 C277.57,696.04 268.95,740.59 282.11,774.23 C286.36,785.1 289.5215,790.7265 297.3515,799.4865" fill="none" id="create_record-to-secure_storage" style="stroke:#000000;stroke-width:1;"/><polygon fill="#000000" points="301.35,803.96,298.3345,794.5841,298.0179,800.2321,292.3699,799.9155,301.35,803.96" style="stroke:#000000;stroke-width:1;"/><text fill="#000000" font-family="Verdana" font-size="10" lengthAdjust="spacing" textLength="84.7314" x="283.11" y="759.2837">&#1047;&#1072;&#1096;&#1080;&#1092;&#1088;&#1086;&#1074;&#1072;&#1085;&#1085;&#1072;&#1103;</text><text fill="#000000" font-family="Verdana" font-size="10" lengthAdjust="spacing" textLength="48.2568" x="301.3473" y="771.437">&#1084;&#1077;&#1076;&#1082;&#1072;&#1088;&#1090;&#1072;</text></g><!--link siem to secure_db--><g class="link" data-entity-1="siem" data-entity-2="secure_db" data-source-line="34" data-uid="lnk19" id="link_siem_secure_db"><path d="M203.94,225.79 C219.77,254.29 245.0279,299.7941 263.4079,332.9041" fill="none" id="siem-to-secure_db" style="stroke:#000000;stroke-width:1;"/><polygon fill="#000000" points="266.32,338.15,265.4491,328.3397,263.8932,333.7784,258.4546,332.2225,266.32,338.15" style="stroke:#000000;stroke-width:1;"/><text fill="#000000" font-family="Verdana" font-size="10" lengthAdjust="spacing" textLength="65.1611" x="250.05" y="299.5137">&#1053;&#1072;&#1073;&#1083;&#1102;&#1076;&#1077;&#1085;&#1080;&#1077;</text></g><!--link siem to secure_storage--><g class="link" data-entity-1="siem" data-entity-2="secure_storage" data-source-line="35" data-uid="lnk20" id="link_siem_secure_storage"><path d="M226.46,226.06 C239.98,234.44 255.7,244.03 270.11,252.46 C335.7,290.84 394.11,294.2 394.11,370.19 C394.11,370.19 394.11,370.19 394.11,670.23 C394.11,717.48 388.29,729.84 372.11,774.23 C368.48,784.16 366.3448,789.1819 361.3648,798.4719" fill="none" id="siem-to-secure_storage" style="stroke:#000000;stroke-width:1;"/><polygon fill="#000000" points="358.53,803.76,366.3075,797.7177,360.8923,799.3532,359.2567,793.938,358.53,803.76" style="stroke:#000000;stroke-width:1;"/><text fill="#000000" font-family="Verdana" font-size="10" lengthAdjust="spacing" textLength="65.1611" x="395.11" y="516.1337">&#1053;&#1072;&#1073;&#1083;&#1102;&#1076;&#1077;&#1085;&#1080;&#1077;</text></g><!--SRC=[ZLNRJXDH57sVhpZM1pM6H4tqWGSJH4X891BxseGCxR5CB3FDT8ZH9sWL912jNA81Mg16XMXYkKoibC8lxFCBVebhdndep01goBIdP_PQ-xRsveetBYUaA1PCopPApooxQBhcX1Wpiy_ohZDfv_gTWkEAv-EM9oFlS_AfELdm1XtRIrilfRXzop2k2Lga3ldg3JvRv0irhIfg3Z-ESIfJot1brZFjV46A56rGbRxGHrgX6ZKozar1MtHC-zIcffhMS9WiP-pVwwy5VO3n3entj7az9SoIA9gU9MrFN2rO-N4lxqffwnWsr1GSpY2EQVpDY-lq4vHpr59pwZs2wQXvycyOMSlDwa0smRc5PuEscPr36Hxi2ntNQLKxG-Iow5cE7NDtnh45mm-qZ2Xhd5B6fdLmBTCgRZQfGTyIT5bNcfuS1QlZvcAKqH8j0bkbh-AYW79EraDVaibl8KskjKz7I9rsSVY9ifxeebxOY8UFHXZs4Ky3CQzJDL7p1bK3ZuMYkEguWCaeFZqqC2m0g-lK6_ZUn7UDbaAQLVscWTiwhT5tJLMovCGP5uVz6JrhQjMqkK_KlAnhETCpnymILwUhYMaugE7N3q7lMJ9z0-cUEtVl_KKx9PcTTELeRYnMm0Xvh2127vPmnKaiXbt-aR57XeP67_IbX_h_uiepytdBpb_cA9b5dLPG3jruTh8MiEdvgAeA7Q0WPGW2KVXgIWzAwzzvbY0LCo_FZme4KOOy3gabGDqCwgnU6wUprTDpFoBzNbsOn91sg0cv7zEkRk6kPZnK5JszAOD5Svva5VOTLUP1fRPQoDZO4z2iceLS3xkWKEF_WJ2w_0pijfUnswZPAutS2qNcdsaabK2UTejn3N3l0nj3zaQw3hzTJ_60dppewuVfGtqn-jWkl41QmLisZCy_E_iI3LAzGqbFS3x09m_qGig8Go9PdZQtLwkfYUqRJxSJyXqXdGEqkWdTbAd9mVCOdgzNJVUnhTx2t0-oJfspZNgz4C3w-eJBYff5IFfQlRjy8zcE9yMOutdEX72UnlG2cZKyNuFzp9FN6qWUMv5bssRUFR3v2cDm4YX4E-5IyYviu_aLZia5QX2X6991TCMWaP7TYWMb3mbvS23HCKhmiQu3BhrqJm3bbl34xF7qODtvf_yw8_9EqkXM13p1yZtYuU350Aefm3kq7oRRNHdT0d7jVUrk1hQ_Z3y0]--></g></svg>