<svg xmlns="http://www.w3.org/2000/svg" xmlns:xlink="http://www.w3.org/1999/xlink" contentStyleType="text/css" data-diagram-type="DESCRIPTION" height="746px" preserveAspectRatio="none" style="width:660px;height:746px;background:#FFFFFF;" version="1.1" viewBox="0 0 660 746" width="660px" zoomAndPan="magnify"><defs/><g><!--entity files--><g class="entity" data-entity="files" data-source-line="6" data-uid="ent0002" id="entity_files"><rect fill="#ADD8E6" height="44.3066" rx="2.5" ry="2.5" style="stroke:#000000;stroke-width:1;" width="81.8701" x="57.74" y="12"/><text fill="#000000" font-family="Verdana" font-size="10" lengthAdjust="spacing" textLength="39.0771" x="67.74" y="32.0537">&#1060;&#1040;&#1049;&#1051;&#1067;</text><text fill="#000000" font-family="Verdana" font-size="10" lengthAdjust="spacing" textLength="61.8701" x="67.74" y="44.207">(Excel, PDF)</text></g><!--entity onec--><g class="entity" data-entity="onec" data-source-line="7" data-uid="ent0003" id="entity_onec"><rect fill="#ADD8E6" height="44.3066" rx="2.5" ry="2.5" style="stroke:#000000;stroke-width:1;" width="132.7246" x="198.31" y="12"/><text fill="#000000" font-family="Verdana" font-size="10" lengthAdjust="spacing" textLength="68.4424" x="208.31" y="32.0537">1&#1057; &#1057;&#1048;&#1057;&#1058;&#1045;&#1052;&#1067;</text><text fill="#000000" font-family="Verdana" font-size="10" lengthAdjust="spacing" textLength="112.7246" x="208.31" y="44.207">(&#1041;&#1091;&#1093;&#1075;&#1072;&#1083;&#1090;&#1077;&#1088;&#1080;&#1103;, &#1057;&#1082;&#1083;&#1072;&#1076;)</text></g><!--entity medcards--><g class="entity" data-entity="medcards" data-source-line="8" data-uid="ent0004" id="entity_medcards"><rect fill="#ADD8E6" height="44.3066" rx="2.5" ry="2.5" style="stroke:#000000;stroke-width:1;" width="125.7764" x="459.78" y="12"/><text fill="#000000" font-family="Verdana" font-size="10" lengthAdjust="spacing" textLength="57.3682" x="469.78" y="32.0537">&#1052;&#1045;&#1044;&#1050;&#1040;&#1056;&#1058;&#1067;</text><text fill="#000000" font-family="Verdana" font-size="10" lengthAdjust="spacing" textLength="105.7764" x="469.78" y="44.207">(&#1057;&#1082;&#1072;&#1085;&#1099;, &#1076;&#1086;&#1082;&#1091;&#1084;&#1077;&#1085;&#1090;&#1099;)</text></g><!--entity classifier--><g class="entity" data-entity="classifier" data-source-line="11" data-uid="ent0005" id="entity_classifier"><ellipse cx="386.67" cy="167.31" fill="#90EE90" rx="8" ry="8" style="stroke:#000000;stroke-width:1;"/><text fill="#000000" font-family="Verdana" font-size="10" lengthAdjust="spacing" textLength="92.0996" x="340.6202" y="194.3637">&#1050;&#1051;&#1040;&#1057;&#1057;&#1048;&#1060;&#1048;&#1050;&#1040;&#1058;&#1054;&#1056;</text><text fill="#000000" font-family="Verdana" font-size="10" lengthAdjust="spacing" textLength="45.376" x="340.6202" y="206.517">&#1044;&#1040;&#1053;&#1053;&#1067;&#1061;</text></g><!--entity engine--><g class="entity" data-entity="engine" data-source-line="12" data-uid="ent0006" id="entity_engine"><ellipse cx="386.67" cy="327.31" fill="#90EE90" rx="8" ry="8" style="stroke:#000000;stroke-width:1;"/><text fill="#000000" font-family="Verdana" font-size="10" lengthAdjust="spacing" textLength="46.3477" x="349.0064" y="354.3637">&#1044;&#1042;&#1048;&#1046;&#1054;&#1050;</text><text fill="#000000" font-family="Verdana" font-size="10" lengthAdjust="spacing" textLength="75.3271" x="349.0064" y="366.517">&#1058;&#1045;&#1043;&#1048;&#1056;&#1054;&#1042;&#1040;&#1053;&#1048;&#1071;</text></g><!--entity tag_storage--><g class="entity" data-entity="tag_storage" data-source-line="15" data-uid="ent0007" id="entity_tag_storage"><path d="M343.49,460.31 C343.49,450.31 386.6687,450.31 386.6687,450.31 C386.6687,450.31 429.8474,450.31 429.8474,460.31 L429.8474,493.6166 C429.8474,503.6166 386.6687,503.6166 386.6687,503.6166 C386.6687,503.6166 343.49,503.6166 343.49,493.6166 L343.49,460.31" fill="#90EE90" style="stroke:#000000;stroke-width:1;"/><path d="M343.49,460.31 C343.49,470.31 386.6687,470.31 386.6687,470.31 C386.6687,470.31 429.8474,470.31 429.8474,460.31" fill="none" style="stroke:#000000;stroke-width:1;"/><text fill="#000000" font-family="Verdana" font-size="10" lengthAdjust="spacing" textLength="66.3574" x="353.49" y="484.3637">&#1061;&#1056;&#1040;&#1053;&#1048;&#1051;&#1048;&#1065;&#1045;</text><text fill="#000000" font-family="Verdana" font-size="10" lengthAdjust="spacing" textLength="32.876" x="353.49" y="496.517">&#1058;&#1045;&#1043;&#1054;&#1042;</text></g><!--entity policy--><g class="entity" data-entity="policy" data-source-line="18" data-uid="ent0008" id="entity_policy"><rect fill="#FFA500" height="44.3066" rx="2.5" ry="2.5" style="stroke:#000000;stroke-width:1;" width="133.8867" x="319.73" y="577.62"/><text fill="#000000" font-family="Verdana" font-size="10" lengthAdjust="spacing" textLength="79.8975" x="329.73" y="597.6737">POLICY ENGINE</text><text fill="#000000" font-family="Verdana" font-size="10" lengthAdjust="spacing" textLength="113.8867" x="329.73" y="609.827">(&#1055;&#1088;&#1080;&#1084;&#1077;&#1085;&#1077;&#1085;&#1080;&#1077; &#1087;&#1088;&#1072;&#1074;&#1080;&#1083;)</text></g><!--entity access_control--><g class="entity" data-entity="access_control" data-source-line="21" data-uid="ent0009" id="entity_access_control"><rect fill="#FFFF00" height="44.3066" rx="2.5" ry="2.5" style="stroke:#000000;stroke-width:1;" width="76.5283" x="218.41" y="695.92"/><text fill="#000000" font-family="Verdana" font-size="10" lengthAdjust="spacing" textLength="56.5283" x="228.41" y="715.9737">&#1050;&#1054;&#1053;&#1058;&#1056;&#1054;&#1051;&#1068;</text><text fill="#000000" font-family="Verdana" font-size="10" lengthAdjust="spacing" textLength="48.9746" x="228.41" y="728.127">&#1044;&#1054;&#1057;&#1058;&#1059;&#1055;&#1040;</text></g><!--entity encryption--><g class="entity" data-entity="encryption" data-source-line="22" data-uid="ent0010" id="entity_encryption"><rect fill="#FFFF00" height="44.3066" rx="2.5" ry="2.5" style="stroke:#000000;stroke-width:1;" width="94.9316" x="339.21" y="695.92"/><text fill="#000000" font-family="Verdana" font-size="10" lengthAdjust="spacing" textLength="74.9316" x="349.21" y="715.9737">&#1064;&#1048;&#1060;&#1056;&#1054;&#1042;&#1040;&#1053;&#1048;&#1045;</text><text fill="#000000" font-family="Verdana" font-size="10" lengthAdjust="spacing" textLength="45.376" x="349.21" y="728.127">&#1044;&#1040;&#1053;&#1053;&#1067;&#1061;</text></g><!--entity audit--><g class="entity" data-entity="audit" data-source-line="23" data-uid="ent0011" id="entity_audit"><rect fill="#FFFF00" height="44.3066" rx="2.5" ry="2.5" style="stroke:#000000;stroke-width:1;" width="77.1973" x="504.07" y="695.92"/><text fill="#000000" font-family="Verdana" font-size="10" lengthAdjust="spacing" textLength="34.1113" x="514.07" y="715.9737">&#1040;&#1059;&#1044;&#1048;&#1058;</text><text fill="#000000" font-family="Verdana" font-size="10" lengthAdjust="spacing" textLength="57.1973" x="514.07" y="728.127">&#1054;&#1055;&#1045;&#1056;&#1040;&#1062;&#1048;&#1049;</text></g><g class="entity" data-entity="GMN21" data-source-line="39" data-uid="ent0022" id="entity_GMN21"><path d="M11,144.08 L11,190.54 L104.3438,190.54 L104.3438,154.08 L94.3438,144.08 L11,144.08" fill="#FFFFFF" style="stroke:#000000;stroke-width:1;"/><path d="M94.3438,144.08 L94.3438,154.08 L104.3438,154.08 L94.3438,144.08" fill="#FFFFFF" style="stroke:#000000;stroke-width:1;"/><text fill="#000000" font-family="Verdana" font-size="10" lengthAdjust="spacing" textLength="30.1953" x="17" y="159.1337">&#1058;&#1045;&#1043;&#1048;:</text><text fill="#000000" font-family="Verdana" font-size="10" lengthAdjust="spacing" textLength="51.0107" x="17" y="171.287">INTERNAL</text><text fill="#000000" font-family="Verdana" font-size="10" lengthAdjust="spacing" textLength="72.3438" x="17" y="183.4404">ADMIN_STAFF</text></g><g class="entity" data-entity="GMN24" data-source-line="40" data-uid="ent0025" id="entity_GMN24"><path d="M199.35,144.08 L199.35,190.54 A0,0 0 0 0 199.35,190.54 L297.9867,190.54 A0,0 0 0 0 297.9867,190.54 L297.9867,154.08 L287.9867,144.08 L255.44,144.08 L262.07,56.52 L247.44,144.08 L199.35,144.08 A0,0 0 0 0 199.35,144.08" fill="#FFFFFF" style="stroke:#000000;stroke-width:1;"/><path d="M287.9867,144.08 L287.9867,154.08 L297.9867,154.08 L287.9867,144.08" fill="#FFFFFF" style="stroke:#000000;stroke-width:1;"/><text fill="#000000" font-family="Verdana" font-size="10" lengthAdjust="spacing" textLength="30.1953" x="205.35" y="159.1337">&#1058;&#1045;&#1043;&#1048;:</text><text fill="#000000" font-family="Verdana" font-size="10" lengthAdjust="spacing" textLength="76.5723" x="205.35" y="171.287">CONFIDENTIAL</text><text fill="#000000" font-family="Verdana" font-size="10" lengthAdjust="spacing" textLength="77.6367" x="205.35" y="183.4404">FINANCE_DEPT</text></g><g class="entity" data-entity="GMN27" data-source-line="41" data-uid="ent0028" id="entity_GMN27"><path d="M526.12,138 L526.12,196.6133 L653.2186,196.6133 L653.2186,148 L643.2186,138 L526.12,138" fill="#FFFFFF" style="stroke:#000000;stroke-width:1;"/><path d="M643.2186,138 L643.2186,148 L653.2186,148 L643.2186,138" fill="#FFFFFF" style="stroke:#000000;stroke-width:1;"/><text fill="#000000" font-family="Verdana" font-size="10" lengthAdjust="spacing" textLength="30.1953" x="532.12" y="153.0537">&#1058;&#1045;&#1043;&#1048;:</text><text fill="#000000" font-family="Verdana" font-size="10" lengthAdjust="spacing" textLength="76.5723" x="532.12" y="165.207">CONFIDENTIAL</text><text fill="#000000" font-family="Verdana" font-size="10" lengthAdjust="spacing" textLength="43.5449" x="532.12" y="177.3604">DOCTOR</text><text fill="#000000" font-family="Verdana" font-size="10" lengthAdjust="spacing" textLength="106.0986" x="532.12" y="189.5137">ENCRYPT_REQUIRED</text></g><!--link files to classifier--><g class="link" data-entity-1="files" data-entity-2="classifier" data-source-line="26" data-uid="lnk12" id="link_files_classifier"><path d="M118.22,56.51 C132.7,71.03 153.67,89.5 175.67,100.31 C232.79,128.37 255.68,109.08 315.67,130.31 C339.12,138.61 359.5478,149.9652 372.6678,157.7952" fill="none" id="files-to-classifier" style="stroke:#000000;stroke-width:1;"/><polygon fill="#000000" points="377.82,160.87,372.1416,152.8229,373.5265,158.3076,368.0418,159.6926,377.82,160.87" style="stroke:#000000;stroke-width:1;"/><text fill="#000000" font-family="Verdana" font-size="10" lengthAdjust="spacing" textLength="108.5889" x="176.67" y="97.3637">&#1040;&#1085;&#1072;&#1083;&#1080;&#1079; &#1089;&#1086;&#1076;&#1077;&#1088;&#1078;&#1080;&#1084;&#1086;&#1075;&#1086;</text></g><!--link onec to classifier--><g class="link" data-entity-1="onec" data-entity-2="classifier" data-source-line="27" data-uid="lnk13" id="link_onec_classifier"><path d="M275.03,56.69 C282.05,70.05 292.12,87.12 303.67,100.31 C326.84,126.76 356.5842,147.249 372.7642,157.589" fill="none" id="onec-to-classifier" style="stroke:#000000;stroke-width:1;"/><polygon fill="#000000" points="377.82,160.82,372.3903,152.603,373.6068,158.1275,368.0824,159.3441,377.82,160.82" style="stroke:#000000;stroke-width:1;"/><text fill="#000000" font-family="Verdana" font-size="10" lengthAdjust="spacing" textLength="108.5889" x="304.67" y="97.3637">&#1040;&#1085;&#1072;&#1083;&#1080;&#1079; &#1089;&#1086;&#1076;&#1077;&#1088;&#1078;&#1080;&#1084;&#1086;&#1075;&#1086;</text></g><!--link medcards to classifier--><g class="link" data-entity-1="medcards" data-entity-2="classifier" data-source-line="28" data-uid="lnk14" id="link_medcards_classifier"><path d="M487.65,56.64 C475.06,65.14 461.14,75.46 449.67,86.31 C424.75,109.87 404.7141,138.6552 394.8741,153.6352" fill="none" id="medcards-to-classifier" style="stroke:#000000;stroke-width:1;"/><polygon fill="#000000" points="391.58,158.65,399.8644,153.3238,394.3251,154.471,393.178,148.9316,391.58,158.65" style="stroke:#000000;stroke-width:1;"/><text fill="#000000" font-family="Verdana" font-size="10" lengthAdjust="spacing" textLength="108.5889" x="450.67" y="97.3637">&#1040;&#1085;&#1072;&#1083;&#1080;&#1079; &#1089;&#1086;&#1076;&#1077;&#1088;&#1078;&#1080;&#1084;&#1086;&#1075;&#1086;</text></g><!--link classifier to engine--><g class="link" data-entity-1="classifier" data-entity-2="engine" data-source-line="30" data-uid="lnk15" id="link_classifier_engine"><path d="M386.67,175.93 C386.67,202.56 386.67,285.31 386.67,312.39" fill="none" id="classifier-to-engine" style="stroke:#000000;stroke-width:1;"/><polygon fill="#000000" points="386.67,318.39,390.67,309.39,386.67,313.39,382.67,309.39,386.67,318.39" style="stroke:#000000;stroke-width:1;"/><text fill="#000000" font-family="Verdana" font-size="10" lengthAdjust="spacing" textLength="50.9912" x="402.7725" y="245.3637">&#1056;&#1077;&#1079;&#1091;&#1083;&#1100;&#1090;&#1072;&#1090;</text><text fill="#000000" font-family="Verdana" font-size="10" lengthAdjust="spacing" textLength="81.1963" x="387.67" y="257.517">&#1082;&#1083;&#1072;&#1089;&#1089;&#1080;&#1092;&#1080;&#1082;&#1072;&#1094;&#1080;&#1080;</text></g><!--link engine to tag_storage--><g class="link" data-entity-1="engine" data-entity-2="tag_storage" data-source-line="31" data-uid="lnk16" id="link_engine_tag_storage"><path d="M386.67,336.25 C386.67,357.39 386.67,409.79 386.67,444.03" fill="none" id="engine-to-tag_storage" style="stroke:#000000;stroke-width:1;"/><polygon fill="#000000" points="386.67,450.03,390.67,441.03,386.67,445.03,382.67,441.03,386.67,450.03" style="stroke:#000000;stroke-width:1;"/><text fill="#000000" font-family="Verdana" font-size="10" lengthAdjust="spacing" textLength="62.2656" x="387.67" y="405.3637">&#1057;&#1086;&#1093;&#1088;&#1072;&#1085;&#1077;&#1085;&#1080;&#1077;</text><text fill="#000000" font-family="Verdana" font-size="10" lengthAdjust="spacing" textLength="27.6465" x="404.9796" y="417.517">&#1090;&#1077;&#1075;&#1086;&#1074;</text></g><!--link tag_storage to policy--><g class="link" data-entity-1="tag_storage" data-entity-2="policy" data-source-line="33" data-uid="lnk17" id="link_tag_storage_policy"><path d="M386.67,503.88 C386.67,525.79 386.67,550.8 386.67,571.33" fill="none" id="tag_storage-to-policy" style="stroke:#000000;stroke-width:1;"/><polygon fill="#000000" points="386.67,577.33,390.67,568.33,386.67,572.33,382.67,568.33,386.67,577.33" style="stroke:#000000;stroke-width:1;"/><text fill="#000000" font-family="Verdana" font-size="10" lengthAdjust="spacing" textLength="74.2188" x="387.67" y="544.6737">&#1058;&#1077;&#1075;&#1080; &#1086;&#1073;&#1098;&#1077;&#1082;&#1090;&#1086;&#1074;</text></g><!--link policy to access_control--><g class="link" data-entity-1="policy" data-entity-2="access_control" data-source-line="34" data-uid="lnk18" id="link_policy_access_control"><path d="M327.36,622.41 C312.37,630 297.25,639.75 285.67,651.92 C274.07,664.12 268.4466,676.038 263.9966,689.878" fill="none" id="policy-to-access_control" style="stroke:#000000;stroke-width:1;"/><polygon fill="#000000" points="262.16,695.59,268.7229,688.2464,263.6905,690.83,261.1069,685.7976,262.16,695.59" style="stroke:#000000;stroke-width:1;"/><text fill="#000000" font-family="Verdana" font-size="10" lengthAdjust="spacing" textLength="88.7109" x="286.67" y="662.9737">&#1055;&#1088;&#1072;&#1074;&#1080;&#1083;&#1072; &#1076;&#1086;&#1089;&#1090;&#1091;&#1087;&#1072;</text></g><!--link policy to encryption--><g class="link" data-entity-1="policy" data-entity-2="encryption" data-source-line="35" data-uid="lnk19" id="link_policy_encryption"><path d="M384.87,622.18 C384.01,634.89 383.24,651.32 383.67,665.92 C383.96,675.62 384.1584,680.3421 384.7384,689.4421" fill="none" id="policy-to-encryption" style="stroke:#000000;stroke-width:1;"/><polygon fill="#000000" points="385.12,695.43,388.5394,686.1938,384.802,690.4401,380.5556,686.7027,385.12,695.43" style="stroke:#000000;stroke-width:1;"/><text fill="#000000" font-family="Verdana" font-size="10" lengthAdjust="spacing" textLength="114.4189" x="384.67" y="662.9737">&#1055;&#1088;&#1072;&#1074;&#1080;&#1083;&#1072; &#1096;&#1080;&#1092;&#1088;&#1086;&#1074;&#1072;&#1085;&#1080;&#1103;</text></g><!--link policy to audit--><g class="link" data-entity-1="policy" data-entity-2="audit" data-source-line="36" data-uid="lnk20" id="link_policy_audit"><path d="M454,621.82 C471.46,629.42 489.36,639.33 503.67,651.92 C517.23,663.86 524.8895,676.2491 531.4595,690.2391" fill="none" id="policy-to-audit" style="stroke:#000000;stroke-width:1;"/><polygon fill="#000000" points="534.01,695.67,533.8049,685.8233,531.8846,691.1442,526.5637,689.2239,534.01,695.67" style="stroke:#000000;stroke-width:1;"/><text fill="#000000" font-family="Verdana" font-size="10" lengthAdjust="spacing" textLength="83.335" x="517.21" y="662.9737">&#1055;&#1088;&#1072;&#1074;&#1080;&#1083;&#1072; &#1072;&#1091;&#1076;&#1080;&#1090;&#1072;</text></g><!--link files to GMN21--><g class="link" data-entity-1="files" data-entity-2="GMN21" data-source-line="39" data-uid="lnk23" id="link_files_GMN21"><path d="M90.21,56.67 C86.76,65.75 82.84,76.48 79.67,86.31 C73.48,105.5 67.48,127.63 63.32,143.74" fill="none" id="files-GMN21" style="stroke:#000000;stroke-width:1;stroke-dasharray:7.0,7.0;"/></g><!--link medcards to GMN27--><g class="link" data-entity-1="medcards" data-entity-2="GMN27" data-source-line="41" data-uid="lnk29" id="link_medcards_GMN27"><path d="M545.48,56.64 C553.47,65.21 561.89,75.59 567.67,86.31 C576.29,102.28 581.76,121.91 585.08,137.73" fill="none" id="medcards-GMN27" style="stroke:#000000;stroke-width:1;stroke-dasharray:7.0,7.0;"/></g><!--SRC=[dLHTJnD157tVNp6M1pM1H5vvC27jrZJ1fPRwGDAasMwdPSDsjjdT1l49glY5YHMfuKC-1QF1n0fK6f3o5-xy8-_ChcKNgW-asRGptNFkkMVEdLlU5ArGKhLqaodkjCcgkgDNI44tfikENMF5k6tP3fcPCZqQ-hz8IthDyf8syoRCfvGCtrEKsmHM-3olGvU_X7Fem2bq21n32nVdV94lA0urF9sLBKfYi0SDM8LrECYnE-eJWrg399r8teqHtIKbqw8k6R3CyfHNi6eq31o67G8xi8BFBZJXaoI0z_mPNu0Zh7M60jfy3ZhytQ1uyHJESFVO9xOPDVx1YqnDM8OrbBMDp99Le5j2-w3eemkd_1dyXZRkrFcYprYXHKDtYX6rmeaT522yQ2EWHUIF8zoQGvP3wGZgKmpJCMJjDJIYWHZHrnu-GiKkRC9sZg6c1cpWvm3sPKN3qbtNB9dK2MgM7KhP9TSoB273HqIl8Lfuz07NsxXUaamhy4FoK5Os6Orm2E7xg57gGzyw_3MqbQBkwGNT5TpxoEDphEFp3Pgz2iWkMJszd7Szsz7BrwZJjcKQiqILTSFMfyV7Kl59eceFKfegVDyIv-SxBPyEj0bSI667GfXlVTNd6y1YhEoxtX-8dejUwYAIaIDVGzaRs80mPns-IxCtPR0-mnOqP1NTCAZhvWrCkcDRP62MMfOz4w7vAayjx72ppxbHPZYpLS-qML-I1jPSHkWkGZUnUbDQ_GLtLdqTjQBfzP2oMHoqkaZbrJ7pnsTew7uuAoEonhcO4FJXXF1vX1xBKVabFUjYGBinHOx83R6zORWXNWbX14KGKG7VnlCymV4xus-nwHQleqroj77Avl5mdylxfiLVu7SdfWH8GH9Ef63QGTiMWf076ScnO41nE555624OWg09yAu_nmJV_CdVuE9K7W6YWfV4-rSY8t1Rb-75wq1S9k9sm7uke1N1Xb9o7STVYKwZbqYqiWn9du8jB7KiPm3BHIQ5p_55Sjc-mcoFaeBjUNQ5sANWAXuXVo-IaHnBQLareusEvTXeuc5AoqzaHvF9gpWPemWiFgubKmbLowO4D9dIHhMuca-ewUnLR2z6_y4dnkFPyKoEgLeyCvdEvZFgeyUfZ9fG_W00]--></g></svg>